<svg xmlns="http://www.w3.org/2000/svg" width="24" height="24"><rect id="backgroundrect" width="100%" height="100%" x="0" y="0" fill="none" stroke="none"/><g class="currentLayer" style=""><title>Layer 1</title><path d="M20.606060028076172,15.847484814167025 h2 C22.606060028076172,10.717484814167022 18.73306002807617,6.848484814167023 13.596060028076172,6.848484814167023 v2 C17.65806002807617,8.848484814167023 20.606060028076172,11.791484814167022 20.606060028076172,15.847484814167025 z" id="svg_1" class="" fill-opacity="1" fill="#ff9f00" transform="rotate(39.90375900268555 18.101058959960934,11.34798526763916) "/><path d="M11.181818008422852,8 c2.103,0 3,0.8970000000000002 3,3 h2 c0,-3.225 -1.775,-5 -5,-5 V8 zM14.603818008422852,13.443 c-0.3990000000000002,-0.3630000000000001 -1.015,-0.3440000000000002 -1.391,0.04300000000000002 l-2.3930000000000002,2.461 c-0.5760000000000002,-0.11000000000000003 -1.734,-0.4710000000000001 -2.926,-1.6600000000000001 c-1.192,-1.193 -1.553,-2.354 -1.6600000000000001,-2.926 l2.459,-2.394 c0.3880000000000001,-0.3760000000000001 0.406,-0.991 0.04300000000000002,-1.391 L5.040818008422853,3.513 c-0.3630000000000001,-0.401 -0.98,-0.4390000000000001 -1.391,-0.08700000000000004 l-2.17,1.8610000000000002 C1.3068180084228516,5.461 1.20381800842285,5.690999999999999 1.1898180084228507,5.936 c-0.015000000000000006,0.25 -0.3010000000000001,6.172 4.291,10.766 C9.486818008422851,20.707 14.504818008422852,21 15.88681800842285,21 c0.202,0 0.3260000000000001,-0.006000000000000004 0.3590000000000001,-0.008000000000000004 c0.24500000000000005,-0.014000000000000004 0.4750000000000001,-0.11700000000000003 0.6480000000000002,-0.2910000000000001 l1.86,-2.171 c0.3530000000000001,-0.4110000000000001 0.3130000000000001,-1.027 -0.08600000000000003,-1.391 L14.603818008422852,13.443 z" id="svg_2" class="" fill-opacity="1" fill="#ff9f00" transform="rotate(41.957054138183594 10.088165283203132,12.092591285705565) "/></g></svg>