<svg xmlns="http://www.w3.org/2000/svg" version="1.1" xmlns:xlink="http://www.w3.org/1999/xlink" xmlns:svgjs="http://svgjs.com/svgjs" width="1520" height="551" preserveAspectRatio="none" viewBox="0 0 1520 551"><g mask="url(&quot;#SvgjsMask1264&quot;)" fill="none"><g mask="url(&quot;#SvgjsMask1265&quot;)"><path d="M1215 285L1185 315L1155 315M1455 285L1425 255L1395 255L1365 255L1335 255M1095 285L1065 255L1035 225L1005 225L975 225L945 225L915 225M1275 315L1245 285L1215 255L1185 255L1155 255M975 285L945 285L915 285L885 285L855 285L825 255L795 255M1125 285L1095 255L1065 225L1035 195L1005 195L975 195L945 195L915 195M1245 315L1215 315M1545 285L1515 285L1485 285L1455 285L1425 285L1395 285L1365 285L1335 285L1305 285L1275 315L1245 315L1215 285L1185 285L1155 285L1125 285L1095 285L1065 285L1035 285L1005 285L975 285L945 255L915 255L885 225L855 225L825 225L795 225L765 225L735 225" stroke="rgba(0, 105, 255, 1)" stroke-width="5"></path><path d="M727.5 225 a7.5 7.5 0 1 0 15 0 a7.5 7.5 0 1 0 -15 0zM1147.5 315 a7.5 7.5 0 1 0 15 0 a7.5 7.5 0 1 0 -15 0zM1327.5 255 a7.5 7.5 0 1 0 15 0 a7.5 7.5 0 1 0 -15 0zM907.5 225 a7.5 7.5 0 1 0 15 0 a7.5 7.5 0 1 0 -15 0zM1147.5 255 a7.5 7.5 0 1 0 15 0 a7.5 7.5 0 1 0 -15 0zM787.5 255 a7.5 7.5 0 1 0 15 0 a7.5 7.5 0 1 0 -15 0zM907.5 195 a7.5 7.5 0 1 0 15 0 a7.5 7.5 0 1 0 -15 0zM1207.5 315 a7.5 7.5 0 1 0 15 0 a7.5 7.5 0 1 0 -15 0z" fill="rgba(0, 105, 255, 1)"></path><path d="M1545 255L1515 255" stroke="rgba(0, 105, 255, 1)" stroke-width="5"></path><path d="M1507.5 255 a7.5 7.5 0 1 0 15 0 a7.5 7.5 0 1 0 -15 0z" fill="rgba(0, 105, 255, 1)"></path><path d="M1065 315L1035 345L1005 345L975 345M1125 315L1095 345L1065 345M945 315L915 345M1485 315L1455 345M855 315L825 315L795 315L765 285L735 285M1215 345L1185 375L1155 375L1125 375L1095 375L1065 375M1545 315L1515 315L1485 315L1455 315L1425 315L1395 315L1365 315L1335 315L1305 315L1275 345L1245 345L1215 345L1185 345L1155 345L1125 315L1095 315L1065 315L1035 315L1005 315L975 315L945 315L915 315L885 315L855 315L825 285L795 285" stroke="rgba(0, 105, 255, 1)" stroke-width="5"></path><path d="M787.5 285 a7.5 7.5 0 1 0 15 0 a7.5 7.5 0 1 0 -15 0zM967.5 345 a7.5 7.5 0 1 0 15 0 a7.5 7.5 0 1 0 -15 0zM1057.5 345 a7.5 7.5 0 1 0 15 0 a7.5 7.5 0 1 0 -15 0zM907.5 345 a7.5 7.5 0 1 0 15 0 a7.5 7.5 0 1 0 -15 0zM1447.5 345 a7.5 7.5 0 1 0 15 0 a7.5 7.5 0 1 0 -15 0zM727.5 285 a7.5 7.5 0 1 0 15 0 a7.5 7.5 0 1 0 -15 0zM1057.5 375 a7.5 7.5 0 1 0 15 0 a7.5 7.5 0 1 0 -15 0z" fill="rgba(0, 105, 255, 1)"></path><path d="M1425 195L1395 195L1365 195L1335 195L1305 195M1155 135L1125 135L1095 135M975 135L945 165L915 165L885 165M825 135L795 165L765 165L735 165M1485 225L1455 225L1425 225L1395 225M1305 165L1275 195L1245 195L1215 195L1185 195M1005 105L975 105L945 105M1545 225L1515 225L1485 225L1455 195L1425 195L1395 165L1365 165L1335 165L1305 165L1275 135L1245 135L1215 165L1185 165L1155 135L1125 105L1095 105L1065 105L1035 105L1005 105L975 135L945 135L915 135L885 135L855 135L825 135L795 135L765 135L735 135L705 135" stroke="rgba(0, 105, 255, 1)" stroke-width="5"></path><path d="M697.5 135 a7.5 7.5 0 1 0 15 0 a7.5 7.5 0 1 0 -15 0zM1297.5 195 a7.5 7.5 0 1 0 15 0 a7.5 7.5 0 1 0 -15 0zM1087.5 135 a7.5 7.5 0 1 0 15 0 a7.5 7.5 0 1 0 -15 0zM877.5 165 a7.5 7.5 0 1 0 15 0 a7.5 7.5 0 1 0 -15 0zM727.5 165 a7.5 7.5 0 1 0 15 0 a7.5 7.5 0 1 0 -15 0zM1387.5 225 a7.5 7.5 0 1 0 15 0 a7.5 7.5 0 1 0 -15 0zM1177.5 195 a7.5 7.5 0 1 0 15 0 a7.5 7.5 0 1 0 -15 0zM937.5 105 a7.5 7.5 0 1 0 15 0 a7.5 7.5 0 1 0 -15 0z" fill="rgba(0, 105, 255, 1)"></path><path d="M945 375L915 405L885 405L855 405M1455 375L1425 375L1395 375L1365 375L1335 375L1305 375M975 375L945 405M1035 375L1005 405M1065 405L1035 405M1095 405L1065 435L1035 435L1005 435M1545 345L1515 345L1485 375L1455 375L1425 345L1395 345L1365 345L1335 345L1305 345L1275 375L1245 405L1215 405L1185 405L1155 405L1125 405L1095 405L1065 405L1035 375L1005 375L975 375L945 375L915 375L885 345L855 345" stroke="rgba(255, 159, 0, 1)" stroke-width="5"></path><path d="M847.5 345 a7.5 7.5 0 1 0 15 0 a7.5 7.5 0 1 0 -15 0zM847.5 405 a7.5 7.5 0 1 0 15 0 a7.5 7.5 0 1 0 -15 0zM1297.5 375 a7.5 7.5 0 1 0 15 0 a7.5 7.5 0 1 0 -15 0zM937.5 405 a7.5 7.5 0 1 0 15 0 a7.5 7.5 0 1 0 -15 0zM997.5 405 a7.5 7.5 0 1 0 15 0 a7.5 7.5 0 1 0 -15 0zM1027.5 405 a7.5 7.5 0 1 0 15 0 a7.5 7.5 0 1 0 -15 0zM997.5 435 a7.5 7.5 0 1 0 15 0 a7.5 7.5 0 1 0 -15 0z" fill="rgba(255, 159, 0, 1)"></path><path d="M1185 105L1155 75M1365 135L1335 105L1305 105L1275 75M1515 195L1485 165M1545 195L1515 195L1485 195L1455 165L1425 165L1395 135L1365 135L1335 135L1305 135L1275 105L1245 105L1215 105L1185 105L1155 105L1125 75" stroke="rgba(0, 105, 255, 1)" stroke-width="5"></path><path d="M1117.5 75 a7.5 7.5 0 1 0 15 0 a7.5 7.5 0 1 0 -15 0zM1147.5 75 a7.5 7.5 0 1 0 15 0 a7.5 7.5 0 1 0 -15 0zM1267.5 75 a7.5 7.5 0 1 0 15 0 a7.5 7.5 0 1 0 -15 0zM1477.5 165 a7.5 7.5 0 1 0 15 0 a7.5 7.5 0 1 0 -15 0z" fill="rgba(0, 105, 255, 1)"></path><path d="M1455 405L1425 435M1215 435L1185 465M1095 465L1065 495L1035 495L1005 465L975 465L945 465M1365 405L1335 435L1305 435L1275 435L1245 465M1545 375L1515 375L1485 405L1455 405L1425 405L1395 405L1365 405L1335 405L1305 405L1275 405L1245 435L1215 435L1185 435L1155 435L1125 435L1095 465L1065 465" stroke="rgba(0, 105, 255, 1)" stroke-width="5"></path><path d="M1057.5 465 a7.5 7.5 0 1 0 15 0 a7.5 7.5 0 1 0 -15 0zM1417.5 435 a7.5 7.5 0 1 0 15 0 a7.5 7.5 0 1 0 -15 0zM1177.5 465 a7.5 7.5 0 1 0 15 0 a7.5 7.5 0 1 0 -15 0zM937.5 465 a7.5 7.5 0 1 0 15 0 a7.5 7.5 0 1 0 -15 0zM1237.5 465 a7.5 7.5 0 1 0 15 0 a7.5 7.5 0 1 0 -15 0z" fill="rgba(0, 105, 255, 1)"></path><path d="M1455 135L1425 105L1395 105M1515 135L1485 105L1455 105L1425 75M1545 165L1515 135L1485 135L1455 135L1425 135" stroke="rgba(255, 159, 0, 1)" stroke-width="5"></path><path d="M1417.5 135 a7.5 7.5 0 1 0 15 0 a7.5 7.5 0 1 0 -15 0zM1387.5 105 a7.5 7.5 0 1 0 15 0 a7.5 7.5 0 1 0 -15 0zM1417.5 75 a7.5 7.5 0 1 0 15 0 a7.5 7.5 0 1 0 -15 0z" fill="rgba(255, 159, 0, 1)"></path></g></g><defs><mask id="SvgjsMask1264"><rect width="1520" height="551" fill="#ffffff"></rect></mask><mask id="SvgjsMask1265"><rect width="1520" height="551" fill="white"></rect><path d="M731.25 225 a3.75 3.75 0 1 0 7.5 0 a3.75 3.75 0 1 0 -7.5 0zM1151.25 315 a3.75 3.75 0 1 0 7.5 0 a3.75 3.75 0 1 0 -7.5 0zM1331.25 255 a3.75 3.75 0 1 0 7.5 0 a3.75 3.75 0 1 0 -7.5 0zM911.25 225 a3.75 3.75 0 1 0 7.5 0 a3.75 3.75 0 1 0 -7.5 0zM1151.25 255 a3.75 3.75 0 1 0 7.5 0 a3.75 3.75 0 1 0 -7.5 0zM791.25 255 a3.75 3.75 0 1 0 7.5 0 a3.75 3.75 0 1 0 -7.5 0zM911.25 195 a3.75 3.75 0 1 0 7.5 0 a3.75 3.75 0 1 0 -7.5 0zM1211.25 315 a3.75 3.75 0 1 0 7.5 0 a3.75 3.75 0 1 0 -7.5 0z" fill="black"></path><path d="M1511.25 255 a3.75 3.75 0 1 0 7.5 0 a3.75 3.75 0 1 0 -7.5 0z" fill="black"></path><path d="M791.25 285 a3.75 3.75 0 1 0 7.5 0 a3.75 3.75 0 1 0 -7.5 0zM971.25 345 a3.75 3.75 0 1 0 7.5 0 a3.75 3.75 0 1 0 -7.5 0zM1061.25 345 a3.75 3.75 0 1 0 7.5 0 a3.75 3.75 0 1 0 -7.5 0zM911.25 345 a3.75 3.75 0 1 0 7.5 0 a3.75 3.75 0 1 0 -7.5 0zM1451.25 345 a3.75 3.75 0 1 0 7.5 0 a3.75 3.75 0 1 0 -7.5 0zM731.25 285 a3.75 3.75 0 1 0 7.5 0 a3.75 3.75 0 1 0 -7.5 0zM1061.25 375 a3.75 3.75 0 1 0 7.5 0 a3.75 3.75 0 1 0 -7.5 0z" fill="black"></path><path d="M701.25 135 a3.75 3.75 0 1 0 7.5 0 a3.75 3.75 0 1 0 -7.5 0zM1301.25 195 a3.75 3.75 0 1 0 7.5 0 a3.75 3.75 0 1 0 -7.5 0zM1091.25 135 a3.75 3.75 0 1 0 7.5 0 a3.75 3.75 0 1 0 -7.5 0zM881.25 165 a3.75 3.75 0 1 0 7.5 0 a3.75 3.75 0 1 0 -7.5 0zM731.25 165 a3.75 3.75 0 1 0 7.5 0 a3.75 3.75 0 1 0 -7.5 0zM1391.25 225 a3.75 3.75 0 1 0 7.5 0 a3.75 3.75 0 1 0 -7.5 0zM1181.25 195 a3.75 3.75 0 1 0 7.5 0 a3.75 3.75 0 1 0 -7.5 0zM941.25 105 a3.75 3.75 0 1 0 7.5 0 a3.75 3.75 0 1 0 -7.5 0z" fill="black"></path><path d="M851.25 345 a3.75 3.75 0 1 0 7.5 0 a3.75 3.75 0 1 0 -7.5 0zM851.25 405 a3.75 3.75 0 1 0 7.5 0 a3.75 3.75 0 1 0 -7.5 0zM1301.25 375 a3.75 3.75 0 1 0 7.5 0 a3.75 3.75 0 1 0 -7.5 0zM941.25 405 a3.75 3.75 0 1 0 7.5 0 a3.75 3.75 0 1 0 -7.5 0zM1001.25 405 a3.75 3.75 0 1 0 7.5 0 a3.75 3.75 0 1 0 -7.5 0zM1031.25 405 a3.75 3.75 0 1 0 7.5 0 a3.75 3.75 0 1 0 -7.5 0zM1001.25 435 a3.75 3.75 0 1 0 7.5 0 a3.75 3.75 0 1 0 -7.5 0z" fill="black"></path><path d="M1121.25 75 a3.75 3.75 0 1 0 7.5 0 a3.75 3.75 0 1 0 -7.5 0zM1151.25 75 a3.75 3.75 0 1 0 7.5 0 a3.75 3.75 0 1 0 -7.5 0zM1271.25 75 a3.75 3.75 0 1 0 7.5 0 a3.75 3.75 0 1 0 -7.5 0zM1481.25 165 a3.75 3.75 0 1 0 7.5 0 a3.75 3.75 0 1 0 -7.5 0z" fill="black"></path><path d="M1061.25 465 a3.75 3.75 0 1 0 7.5 0 a3.75 3.75 0 1 0 -7.5 0zM1421.25 435 a3.75 3.75 0 1 0 7.5 0 a3.75 3.75 0 1 0 -7.5 0zM1181.25 465 a3.75 3.75 0 1 0 7.5 0 a3.75 3.75 0 1 0 -7.5 0zM941.25 465 a3.75 3.75 0 1 0 7.5 0 a3.75 3.75 0 1 0 -7.5 0zM1241.25 465 a3.75 3.75 0 1 0 7.5 0 a3.75 3.75 0 1 0 -7.5 0z" fill="black"></path><path d="M1421.25 135 a3.75 3.75 0 1 0 7.5 0 a3.75 3.75 0 1 0 -7.5 0zM1391.25 105 a3.75 3.75 0 1 0 7.5 0 a3.75 3.75 0 1 0 -7.5 0zM1421.25 75 a3.75 3.75 0 1 0 7.5 0 a3.75 3.75 0 1 0 -7.5 0z" fill="black"></path></mask></defs></svg>