<svg xmlns="http://www.w3.org/2000/svg" version="1.1" xmlns:xlink="http://www.w3.org/1999/xlink" xmlns:svgjs="http://svgjs.com/svgjs" width="980" height="421" preserveAspectRatio="none" viewBox="0 0 980 421"><g mask="url(&quot;#SvgjsMask2100&quot;)" fill="none"><g mask="url(&quot;#SvgjsMask2101&quot;)"><path d="M960.5 212.5L943.5 212.5L926.5 212.5M773.5 195.5L756.5 212.5L739.5 212.5L722.5 212.5M790.5 195.5L773.5 212.5L756.5 229.5L739.5 229.5L722.5 229.5M858.5 195.5L841.5 212.5M994.5 212.5L977.5 212.5L960.5 212.5L943.5 195.5L926.5 195.5L909.5 195.5L892.5 195.5L875.5 195.5L858.5 195.5L841.5 195.5L824.5 195.5L807.5 195.5L790.5 195.5L773.5 195.5L756.5 195.5L739.5 195.5" stroke="rgba(0, 105, 255, 1)" stroke-width="2.83"></path><path d="M735.25 195.5 a4.25 4.25 0 1 0 8.5 0 a4.25 4.25 0 1 0 -8.5 0zM922.25 212.5 a4.25 4.25 0 1 0 8.5 0 a4.25 4.25 0 1 0 -8.5 0zM718.25 212.5 a4.25 4.25 0 1 0 8.5 0 a4.25 4.25 0 1 0 -8.5 0zM718.25 229.5 a4.25 4.25 0 1 0 8.5 0 a4.25 4.25 0 1 0 -8.5 0zM837.25 212.5 a4.25 4.25 0 1 0 8.5 0 a4.25 4.25 0 1 0 -8.5 0z" fill="rgba(0, 105, 255, 1)"></path><path d="M994.5 195.5L977.5 195.5L960.5 195.5L943.5 178.5L926.5 178.5L909.5 178.5L892.5 178.5L875.5 178.5L858.5 178.5L841.5 178.5L824.5 178.5L807.5 178.5L790.5 178.5L773.5 178.5L756.5 178.5L739.5 178.5L722.5 178.5" stroke="rgba(255, 159, 0, 1)" stroke-width="2.83"></path><path d="M718.25 178.5 a4.25 4.25 0 1 0 8.5 0 a4.25 4.25 0 1 0 -8.5 0z" fill="rgba(255, 159, 0, 1)"></path><path d="M909.5 212.5L892.5 229.5L875.5 229.5L858.5 229.5M926.5 229.5L909.5 229.5M994.5 229.5L977.5 229.5L960.5 229.5L943.5 229.5L926.5 229.5L909.5 212.5L892.5 212.5L875.5 212.5" stroke="rgba(0, 105, 255, 1)" stroke-width="2.83"></path><path d="M871.25 212.5 a4.25 4.25 0 1 0 8.5 0 a4.25 4.25 0 1 0 -8.5 0zM854.25 229.5 a4.25 4.25 0 1 0 8.5 0 a4.25 4.25 0 1 0 -8.5 0zM905.25 229.5 a4.25 4.25 0 1 0 8.5 0 a4.25 4.25 0 1 0 -8.5 0z" fill="rgba(0, 105, 255, 1)"></path><path d="M994.5 178.5L977.5 178.5" stroke="rgba(0, 105, 255, 1)" stroke-width="2.83"></path><path d="M973.25 178.5 a4.25 4.25 0 1 0 8.5 0 a4.25 4.25 0 1 0 -8.5 0z" fill="rgba(0, 105, 255, 1)"></path><path d="M807.5 246.5L790.5 263.5M841.5 246.5L824.5 229.5L807.5 229.5M824.5 246.5L807.5 263.5L790.5 280.5M994.5 246.5L977.5 246.5L960.5 246.5L943.5 246.5L926.5 246.5L909.5 246.5L892.5 246.5L875.5 246.5L858.5 246.5L841.5 246.5L824.5 246.5L807.5 246.5L790.5 246.5" stroke="rgba(255, 159, 0, 1)" stroke-width="2.83"></path><path d="M786.25 246.5 a4.25 4.25 0 1 0 8.5 0 a4.25 4.25 0 1 0 -8.5 0zM786.25 263.5 a4.25 4.25 0 1 0 8.5 0 a4.25 4.25 0 1 0 -8.5 0zM803.25 229.5 a4.25 4.25 0 1 0 8.5 0 a4.25 4.25 0 1 0 -8.5 0zM786.25 280.5 a4.25 4.25 0 1 0 8.5 0 a4.25 4.25 0 1 0 -8.5 0z" fill="rgba(255, 159, 0, 1)"></path><path d="M773.5 161.5L756.5 144.5M824.5 161.5L807.5 144.5L790.5 144.5M858.5 161.5L841.5 144.5L824.5 144.5L807.5 127.5L790.5 127.5M994.5 161.5L977.5 161.5L960.5 161.5L943.5 161.5L926.5 161.5L909.5 161.5L892.5 161.5L875.5 161.5L858.5 161.5L841.5 161.5L824.5 161.5L807.5 161.5L790.5 161.5L773.5 161.5L756.5 161.5L739.5 161.5" stroke="rgba(0, 105, 255, 1)" stroke-width="2.83"></path><path d="M735.25 161.5 a4.25 4.25 0 1 0 8.5 0 a4.25 4.25 0 1 0 -8.5 0zM752.25 144.5 a4.25 4.25 0 1 0 8.5 0 a4.25 4.25 0 1 0 -8.5 0zM786.25 144.5 a4.25 4.25 0 1 0 8.5 0 a4.25 4.25 0 1 0 -8.5 0zM786.25 127.5 a4.25 4.25 0 1 0 8.5 0 a4.25 4.25 0 1 0 -8.5 0z" fill="rgba(0, 105, 255, 1)"></path><path d="M977.5 263.5L960.5 280.5M943.5 263.5L926.5 280.5M909.5 263.5L892.5 280.5L875.5 280.5L858.5 280.5M994.5 263.5L977.5 263.5L960.5 263.5L943.5 263.5L926.5 263.5L909.5 263.5L892.5 263.5" stroke="rgba(0, 105, 255, 1)" stroke-width="2.83"></path><path d="M888.25 263.5 a4.25 4.25 0 1 0 8.5 0 a4.25 4.25 0 1 0 -8.5 0zM956.25 280.5 a4.25 4.25 0 1 0 8.5 0 a4.25 4.25 0 1 0 -8.5 0zM922.25 280.5 a4.25 4.25 0 1 0 8.5 0 a4.25 4.25 0 1 0 -8.5 0zM854.25 280.5 a4.25 4.25 0 1 0 8.5 0 a4.25 4.25 0 1 0 -8.5 0z" fill="rgba(0, 105, 255, 1)"></path><path d="M892.5 144.5L875.5 127.5L858.5 127.5L841.5 127.5M926.5 144.5L909.5 127.5L892.5 127.5L875.5 110.5L858.5 110.5M994.5 144.5L977.5 144.5L960.5 144.5L943.5 144.5L926.5 144.5L909.5 144.5L892.5 144.5L875.5 144.5" stroke="rgba(255, 159, 0, 1)" stroke-width="2.83"></path><path d="M871.25 144.5 a4.25 4.25 0 1 0 8.5 0 a4.25 4.25 0 1 0 -8.5 0zM837.25 127.5 a4.25 4.25 0 1 0 8.5 0 a4.25 4.25 0 1 0 -8.5 0zM854.25 110.5 a4.25 4.25 0 1 0 8.5 0 a4.25 4.25 0 1 0 -8.5 0z" fill="rgba(255, 159, 0, 1)"></path><path d="M977.5 127.5L960.5 110.5L943.5 110.5L926.5 127.5M994.5 127.5L977.5 127.5L960.5 127.5" stroke="rgba(0, 105, 255, 1)" stroke-width="2.83"></path><path d="M956.25 127.5 a4.25 4.25 0 1 0 8.5 0 a4.25 4.25 0 1 0 -8.5 0zM922.25 127.5 a4.25 4.25 0 1 0 8.5 0 a4.25 4.25 0 1 0 -8.5 0z" fill="rgba(0, 105, 255, 1)"></path><path d="M960.5 297.5L943.5 314.5L926.5 314.5L909.5 314.5L892.5 314.5M977.5 297.5L960.5 314.5L943.5 331.5M994.5 297.5L977.5 297.5L960.5 297.5L943.5 297.5L926.5 297.5L909.5 297.5" stroke="rgba(255, 159, 0, 1)" stroke-width="2.83"></path><path d="M905.25 297.5 a4.25 4.25 0 1 0 8.5 0 a4.25 4.25 0 1 0 -8.5 0zM888.25 314.5 a4.25 4.25 0 1 0 8.5 0 a4.25 4.25 0 1 0 -8.5 0zM939.25 331.5 a4.25 4.25 0 1 0 8.5 0 a4.25 4.25 0 1 0 -8.5 0z" fill="rgba(255, 159, 0, 1)"></path></g></g><defs><mask id="SvgjsMask2100"><rect width="980" height="421" fill="#ffffff"></rect></mask><mask id="SvgjsMask2101"><rect width="980" height="421" fill="white"></rect><path d="M737.37 195.5 a2.13 2.13 0 1 0 4.26 0 a2.13 2.13 0 1 0 -4.26 0zM924.37 212.5 a2.13 2.13 0 1 0 4.26 0 a2.13 2.13 0 1 0 -4.26 0zM720.37 212.5 a2.13 2.13 0 1 0 4.26 0 a2.13 2.13 0 1 0 -4.26 0zM720.37 229.5 a2.13 2.13 0 1 0 4.26 0 a2.13 2.13 0 1 0 -4.26 0zM839.37 212.5 a2.13 2.13 0 1 0 4.26 0 a2.13 2.13 0 1 0 -4.26 0z" fill="black"></path><path d="M720.37 178.5 a2.13 2.13 0 1 0 4.26 0 a2.13 2.13 0 1 0 -4.26 0z" fill="black"></path><path d="M873.37 212.5 a2.13 2.13 0 1 0 4.26 0 a2.13 2.13 0 1 0 -4.26 0zM856.37 229.5 a2.13 2.13 0 1 0 4.26 0 a2.13 2.13 0 1 0 -4.26 0zM907.37 229.5 a2.13 2.13 0 1 0 4.26 0 a2.13 2.13 0 1 0 -4.26 0z" fill="black"></path><path d="M975.37 178.5 a2.13 2.13 0 1 0 4.26 0 a2.13 2.13 0 1 0 -4.26 0z" fill="black"></path><path d="M788.37 246.5 a2.13 2.13 0 1 0 4.26 0 a2.13 2.13 0 1 0 -4.26 0zM788.37 263.5 a2.13 2.13 0 1 0 4.26 0 a2.13 2.13 0 1 0 -4.26 0zM805.37 229.5 a2.13 2.13 0 1 0 4.26 0 a2.13 2.13 0 1 0 -4.26 0zM788.37 280.5 a2.13 2.13 0 1 0 4.26 0 a2.13 2.13 0 1 0 -4.26 0z" fill="black"></path><path d="M737.37 161.5 a2.13 2.13 0 1 0 4.26 0 a2.13 2.13 0 1 0 -4.26 0zM754.37 144.5 a2.13 2.13 0 1 0 4.26 0 a2.13 2.13 0 1 0 -4.26 0zM788.37 144.5 a2.13 2.13 0 1 0 4.26 0 a2.13 2.13 0 1 0 -4.26 0zM788.37 127.5 a2.13 2.13 0 1 0 4.26 0 a2.13 2.13 0 1 0 -4.26 0z" fill="black"></path><path d="M890.37 263.5 a2.13 2.13 0 1 0 4.26 0 a2.13 2.13 0 1 0 -4.26 0zM958.37 280.5 a2.13 2.13 0 1 0 4.26 0 a2.13 2.13 0 1 0 -4.26 0zM924.37 280.5 a2.13 2.13 0 1 0 4.26 0 a2.13 2.13 0 1 0 -4.26 0zM856.37 280.5 a2.13 2.13 0 1 0 4.26 0 a2.13 2.13 0 1 0 -4.26 0z" fill="black"></path><path d="M873.37 144.5 a2.13 2.13 0 1 0 4.26 0 a2.13 2.13 0 1 0 -4.26 0zM839.37 127.5 a2.13 2.13 0 1 0 4.26 0 a2.13 2.13 0 1 0 -4.26 0zM856.37 110.5 a2.13 2.13 0 1 0 4.26 0 a2.13 2.13 0 1 0 -4.26 0z" fill="black"></path><path d="M958.37 127.5 a2.13 2.13 0 1 0 4.26 0 a2.13 2.13 0 1 0 -4.26 0zM924.37 127.5 a2.13 2.13 0 1 0 4.26 0 a2.13 2.13 0 1 0 -4.26 0z" fill="black"></path><path d="M907.37 297.5 a2.13 2.13 0 1 0 4.26 0 a2.13 2.13 0 1 0 -4.26 0zM890.37 314.5 a2.13 2.13 0 1 0 4.26 0 a2.13 2.13 0 1 0 -4.26 0zM941.37 331.5 a2.13 2.13 0 1 0 4.26 0 a2.13 2.13 0 1 0 -4.26 0z" fill="black"></path></mask></defs></svg>