<?xml version="1.0" standalone="no"?>
<!DOCTYPE svg PUBLIC "-//W3C//DTD SVG 20010904//EN"
 "http://www.w3.org/TR/2001/REC-SVG-20010904/DTD/svg10.dtd">
<svg version="1.0" xmlns="http://www.w3.org/2000/svg"
 width="364.000000pt" height="272.000000pt" viewBox="0 0 364.000000 272.000000"
 preserveAspectRatio="xMidYMid meet">

<g transform="translate(0.000000,272.000000) scale(0.100000,-0.100000)"
fill="#000000" stroke="none">
<path d="M1270 2210 l0 -450 55 0 55 0 0 450 0 450 -55 0 -55 0 0 -450z"/>
<path d="M700 2000 c-121 -26 -253 -123 -332 -244 -124 -191 -136 -532 -28
-758 64 -133 179 -241 300 -282 73 -24 205 -32 280 -16 l60 13 0 149 0 150
-37 -8 c-21 -5 -69 -9 -108 -9 -78 1 -113 15 -164 67 -103 102 -129 336 -57
495 29 62 94 127 143 144 35 11 151 8 201 -7 l22 -6 0 150 c0 147 0 150 -22
156 -40 12 -211 15 -258 6z"/>
<path d="M1663 1973 l-23 -4 0 -625 0 -624 290 0 290 0 0 135 0 135 -148 0
-149 0 1 112 1 113 125 0 125 0 3 133 3 132 -129 0 -129 0 1 113 1 112 117 -3
c64 -2 131 -1 147 3 l31 7 0 128 c0 124 -1 128 -22 134 -26 6 -500 6 -535 -1z"/>
<path d="M2583 1973 c-10 -4 -13 -139 -13 -629 l0 -624 145 0 145 0 0 260 0
260 125 0 125 0 0 -260 0 -260 145 0 145 0 -2 628 -3 627 -140 0 -140 0 -3
-232 -2 -233 -125 0 -125 0 0 234 0 234 -132 0 c-73 0 -139 -2 -145 -5z"/>
<path d="M1360 973 c0 -9 -16 -13 -45 -13 l-45 0 0 -445 0 -445 55 0 55 0 0
443 c0 268 -4 448 -10 457 -6 10 -10 11 -10 3z"/>
<path d="M760 460 c-19 -4 -26 -13 -28 -38 -2 -18 -7 -32 -12 -32 -9 0 -7 -26
3 -36 4 -4 7 -29 7 -56 0 -41 3 -48 20 -48 17 0 20 7 20 50 0 36 4 50 14 50
17 0 15 32 -2 38 -14 4 -16 32 -3 32 12 0 21 25 13 37 -4 5 -18 7 -32 3z"/>
<path d="M1103 463 c-8 -2 -13 -22 -13 -44 0 -36 -2 -39 -19 -30 -26 15 -51
-16 -51 -63 0 -59 13 -74 65 -74 27 0 45 4 46 11 0 7 2 54 2 106 2 92 -2 106
-30 94z m-13 -144 c0 -38 -24 -35 -28 4 -2 19 1 27 12 27 11 0 16 -10 16 -31z"/>
<path d="M1840 359 c0 -102 1 -109 20 -109 17 0 20 7 20 50 0 38 4 50 15 50
11 0 15 -12 15 -50 0 -43 3 -50 20 -50 18 0 20 7 20 65 0 52 -4 66 -18 74 -11
6 -24 6 -33 1 -11 -8 -15 -1 -19 32 -4 29 -10 42 -22 44 -16 2 -18 -9 -18
-107z"/>
<path d="M2310 361 c0 -105 1 -111 20 -111 20 0 21 5 18 107 -3 93 -5 108 -20
111 -16 3 -18 -7 -18 -107z"/>
<path d="M3038 458 c-2 -7 -3 -56 -3 -108 0 -91 1 -95 23 -98 19 -3 22 1 23
30 l0 33 16 -32 c12 -24 24 -33 40 -33 l24 0 -22 39 -22 39 22 31 22 31 -29 0
c-20 0 -32 -7 -40 -22 -9 -20 -11 -15 -11 33 -1 42 -5 58 -17 63 -21 8 -21 8
-26 -6z"/>
<path d="M216 439 c-71 -56 -39 -189 45 -189 24 0 29 4 29 24 0 19 -4 23 -19
19 -30 -8 -56 39 -45 80 8 25 16 33 37 35 21 3 27 9 27 28 0 31 -36 33 -74 3z"/>
<path d="M653 444 c-8 -21 13 -42 28 -27 13 13 5 43 -11 43 -6 0 -13 -7 -17
-16z"/>
<path d="M820 446 c-13 -17 -6 -36 15 -36 19 0 26 27 11 39 -10 8 -17 7 -26
-3z"/>
<path d="M1997 453 c-13 -12 -7 -43 7 -43 19 0 28 14 20 34 -7 17 -16 20 -27
9z"/>
<path d="M1630 350 l0 -100 45 0 c38 0 45 3 45 20 0 11 -4 21 -10 21 -5 1 -16
2 -22 3 -7 0 -14 9 -16 19 -2 12 3 17 17 17 14 0 21 6 21 20 0 13 -7 20 -20
20 -13 0 -20 7 -20 20 0 15 7 20 25 20 18 0 25 5 25 20 0 17 -7 20 -45 20
l-45 0 0 -100z"/>
<path d="M2620 349 c0 -98 1 -100 22 -97 19 2 23 10 23 42 1 29 6 40 18 42 9
1 18 -3 18 -9 1 -7 2 -16 4 -22 1 -5 3 -20 3 -32 2 -16 8 -23 22 -23 19 0 20
7 20 100 0 97 -1 100 -23 100 -18 0 -22 -5 -22 -32 0 -26 -4 -33 -20 -33 -11
0 -20 7 -21 15 -3 45 -5 50 -24 50 -19 0 -20 -7 -20 -101z"/>
<path d="M569 418 c-1 -7 -1 -16 0 -20 0 -5 -3 -8 -9 -8 -11 0 -14 -33 -3 -44
4 -4 8 -21 8 -39 3 -54 4 -57 25 -57 17 0 20 7 20 46 0 25 5 54 10 64 7 13 7
21 0 25 -5 3 -10 15 -10 26 0 21 -39 28 -41 7z"/>
<path d="M1755 420 c-3 -5 -3 -14 0 -20 3 -5 1 -10 -6 -10 -8 0 -9 -11 -4 -37
4 -21 8 -51 9 -68 1 -23 7 -31 24 -33 20 -3 22 1 22 47 0 28 4 51 9 51 6 0 9
9 8 20 -1 11 -5 20 -9 20 -4 0 -8 9 -8 20 0 21 -33 29 -45 10z"/>
<path d="M329 379 c-24 -24 -26 -91 -3 -113 19 -20 58 -21 74 -1 17 20 4 38
-20 25 -25 -13 -30 -13 -30 5 0 11 11 15 36 15 34 0 36 1 29 27 -13 55 -54 74
-86 42z m41 -34 c0 -8 -4 -15 -10 -15 -5 0 -10 7 -10 15 0 8 5 15 10 15 6 0
10 -7 10 -15z"/>
<path d="M913 385 c-29 -20 -36 -58 -19 -100 12 -29 20 -35 44 -35 36 0 61 25
44 42 -9 9 -15 9 -24 0 -16 -16 -28 -15 -28 3 0 10 11 15 35 15 33 0 35 2 29
28 -6 25 -37 62 -53 62 -4 0 -16 -7 -28 -15z m37 -40 c0 -8 -4 -15 -10 -15 -5
0 -10 7 -10 15 0 8 5 15 10 15 6 0 10 -7 10 -15z"/>
<path d="M3189 379 c-24 -24 -26 -91 -3 -113 19 -20 58 -21 74 -1 17 20 4 38
-20 25 -25 -13 -30 -13 -30 5 0 11 11 15 36 15 34 0 36 1 29 27 -13 55 -54 74
-86 42z m41 -34 c0 -8 -4 -15 -10 -15 -5 0 -10 7 -10 15 0 8 5 15 10 15 6 0
10 -7 10 -15z"/>
<path d="M447 382 c-2 -4 -4 -34 -3 -67 1 -54 3 -60 24 -63 20 -3 22 0 22 47
0 42 3 51 18 51 11 0 18 7 18 19 0 15 -8 19 -38 19 -21 1 -39 -2 -41 -6z"/>
<path d="M650 320 c0 -63 2 -70 20 -70 18 0 20 7 20 70 0 63 -2 70 -20 70 -18
0 -20 -7 -20 -70z"/>
<path d="M810 321 c0 -63 2 -71 19 -71 24 0 27 11 27 80 -1 49 -3 55 -23 58
-22 3 -23 0 -23 -67z"/>
<path d="M1986 342 c2 -89 3 -92 24 -92 18 0 20 7 20 70 0 66 -1 70 -22 70
-21 0 -23 -5 -22 -48z"/>
<path d="M2070 376 c-16 -20 -15 -93 1 -112 16 -19 62 -14 65 8 1 9 -6 18 -17
21 -27 7 -26 53 2 60 12 3 19 12 17 19 -7 19 -53 22 -68 4z"/>
<path d="M2161 358 c-11 -31 -6 -73 11 -95 5 -6 29 -11 54 -11 l44 0 0 68 0
68 -49 0 c-46 1 -50 -1 -60 -30z m69 -39 c0 -19 -5 -29 -15 -29 -15 0 -22 50
-9 63 12 12 24 -4 24 -34z"/>
<path d="M2790 364 c-13 -33 -13 -58 1 -87 10 -21 18 -25 60 -25 l49 0 0 68 0
68 -50 0 c-45 1 -52 -2 -60 -24z m65 -44 c0 -27 -20 -38 -28 -15 -8 20 3 47
17 42 6 -2 11 -14 11 -27z"/>
<path d="M2941 371 c-15 -27 -14 -83 2 -105 8 -11 23 -17 37 -14 31 4 38 33
10 41 -12 3 -20 13 -20 27 0 14 8 24 20 27 30 8 21 37 -12 41 -18 2 -30 -3
-37 -17z"/>
<path d="M3305 327 c4 -81 2 -77 25 -77 17 0 20 7 20 49 0 39 4 50 18 53 10 3
19 12 19 20 0 11 -12 16 -42 16 l-42 1 2 -62z"/>
</g>
</svg>
