<svg xmlns="http://www.w3.org/2000/svg" version="1.1" xmlns:xlink="http://www.w3.org/1999/xlink" xmlns:svgjs="http://svgjs.com/svgjs" width="1280" height="560" preserveAspectRatio="none" viewBox="0 0 1280 560"><g mask="url(&quot;#SvgjsMask1794&quot;)" fill="none"><rect width="1280" height="560" x="0" y="0" fill="rgba(255, 159, 0, 1)"></rect><g mask="url(&quot;#SvgjsMask1795&quot;)"><path d="M1312.5 287.5L1287.5 287.5L1262.5 287.5L1237.5 287.5L1212.5 287.5L1187.5 287.5" stroke="rgba(0, 105, 255, 1)" stroke-width="4.17"></path><path d="M1181.25 287.5 a6.25 6.25 0 1 0 12.5 0 a6.25 6.25 0 1 0 -12.5 0z" fill="rgba(0, 105, 255, 1)"></path><path d="M937.5 237.5L912.5 212.5L887.5 187.5L862.5 187.5L837.5 187.5M1187.5 262.5L1162.5 237.5L1137.5 237.5L1112.5 237.5M1112.5 262.5L1087.5 287.5M1062.5 262.5L1037.5 237.5L1012.5 237.5M862.5 237.5L837.5 262.5M1312.5 262.5L1287.5 262.5L1262.5 262.5L1237.5 262.5L1212.5 262.5L1187.5 262.5L1162.5 262.5L1137.5 262.5L1112.5 262.5L1087.5 262.5L1062.5 262.5L1037.5 262.5L1012.5 262.5L987.5 237.5L962.5 237.5L937.5 237.5L912.5 237.5L887.5 237.5L862.5 237.5L837.5 237.5" stroke="rgba(0, 105, 255, 1)" stroke-width="4.17"></path><path d="M831.25 237.5 a6.25 6.25 0 1 0 12.5 0 a6.25 6.25 0 1 0 -12.5 0zM831.25 187.5 a6.25 6.25 0 1 0 12.5 0 a6.25 6.25 0 1 0 -12.5 0zM1106.25 237.5 a6.25 6.25 0 1 0 12.5 0 a6.25 6.25 0 1 0 -12.5 0zM1081.25 287.5 a6.25 6.25 0 1 0 12.5 0 a6.25 6.25 0 1 0 -12.5 0zM1006.25 237.5 a6.25 6.25 0 1 0 12.5 0 a6.25 6.25 0 1 0 -12.5 0zM831.25 262.5 a6.25 6.25 0 1 0 12.5 0 a6.25 6.25 0 1 0 -12.5 0z" fill="rgba(0, 105, 255, 1)"></path><path d="M987.5 337.5L962.5 312.5L937.5 312.5L912.5 312.5L887.5 312.5L862.5 312.5L837.5 312.5L812.5 312.5M1012.5 312.5L987.5 312.5L962.5 287.5L937.5 287.5L912.5 287.5M1162.5 312.5L1137.5 287.5M1062.5 312.5L1037.5 287.5M862.5 337.5L837.5 337.5L812.5 337.5L787.5 337.5L762.5 337.5L737.5 337.5L712.5 337.5L687.5 337.5L662.5 337.5M1312.5 312.5L1287.5 312.5L1262.5 312.5L1237.5 312.5L1212.5 312.5L1187.5 312.5L1162.5 312.5L1137.5 312.5L1112.5 312.5L1087.5 312.5L1062.5 312.5L1037.5 312.5L1012.5 312.5L987.5 337.5L962.5 337.5L937.5 337.5L912.5 337.5L887.5 337.5L862.5 337.5L837.5 362.5L812.5 387.5L787.5 387.5L762.5 387.5" stroke="rgba(0, 105, 255, 1)" stroke-width="4.17"></path><path d="M756.25 387.5 a6.25 6.25 0 1 0 12.5 0 a6.25 6.25 0 1 0 -12.5 0zM806.25 312.5 a6.25 6.25 0 1 0 12.5 0 a6.25 6.25 0 1 0 -12.5 0zM906.25 287.5 a6.25 6.25 0 1 0 12.5 0 a6.25 6.25 0 1 0 -12.5 0zM1131.25 287.5 a6.25 6.25 0 1 0 12.5 0 a6.25 6.25 0 1 0 -12.5 0zM1031.25 287.5 a6.25 6.25 0 1 0 12.5 0 a6.25 6.25 0 1 0 -12.5 0zM656.25 337.5 a6.25 6.25 0 1 0 12.5 0 a6.25 6.25 0 1 0 -12.5 0z" fill="rgba(0, 105, 255, 1)"></path><path d="M1312.5 237.5L1287.5 237.5L1262.5 237.5L1237.5 237.5L1212.5 237.5" stroke="rgba(0, 105, 255, 1)" stroke-width="4.17"></path><path d="M1206.25 237.5 a6.25 6.25 0 1 0 12.5 0 a6.25 6.25 0 1 0 -12.5 0z" fill="rgba(0, 105, 255, 1)"></path><path d="M1087.5 337.5L1062.5 362.5M1037.5 337.5L1012.5 337.5M1112.5 337.5L1087.5 362.5M1312.5 337.5L1287.5 337.5L1262.5 337.5L1237.5 337.5L1212.5 337.5L1187.5 337.5L1162.5 337.5L1137.5 337.5L1112.5 337.5L1087.5 337.5L1062.5 337.5L1037.5 337.5L1012.5 362.5L987.5 362.5L962.5 362.5" stroke="rgba(0, 105, 255, 1)" stroke-width="4.17"></path><path d="M956.25 362.5 a6.25 6.25 0 1 0 12.5 0 a6.25 6.25 0 1 0 -12.5 0zM1056.25 362.5 a6.25 6.25 0 1 0 12.5 0 a6.25 6.25 0 1 0 -12.5 0zM1006.25 337.5 a6.25 6.25 0 1 0 12.5 0 a6.25 6.25 0 1 0 -12.5 0zM1081.25 362.5 a6.25 6.25 0 1 0 12.5 0 a6.25 6.25 0 1 0 -12.5 0z" fill="rgba(0, 105, 255, 1)"></path><path d="M1137.5 212.5L1112.5 187.5L1087.5 187.5L1062.5 187.5M1162.5 212.5L1137.5 187.5M1312.5 212.5L1287.5 212.5L1262.5 212.5L1237.5 212.5L1212.5 212.5L1187.5 212.5L1162.5 212.5L1137.5 212.5L1112.5 212.5" stroke="rgba(0, 105, 255, 1)" stroke-width="4.17"></path><path d="M1106.25 212.5 a6.25 6.25 0 1 0 12.5 0 a6.25 6.25 0 1 0 -12.5 0zM1056.25 187.5 a6.25 6.25 0 1 0 12.5 0 a6.25 6.25 0 1 0 -12.5 0zM1131.25 187.5 a6.25 6.25 0 1 0 12.5 0 a6.25 6.25 0 1 0 -12.5 0z" fill="rgba(0, 105, 255, 1)"></path><path d="M1312.5 362.5L1287.5 362.5L1262.5 362.5" stroke="rgba(0, 105, 255, 1)" stroke-width="4.17"></path><path d="M1256.25 362.5 a6.25 6.25 0 1 0 12.5 0 a6.25 6.25 0 1 0 -12.5 0z" fill="rgba(0, 105, 255, 1)"></path><path d="M787.5 137.5L762.5 112.5L737.5 112.5M887.5 137.5L862.5 162.5M712.5 137.5L687.5 137.5L662.5 137.5M1062.5 162.5L1037.5 137.5L1012.5 137.5M987.5 162.5L962.5 137.5L937.5 137.5L912.5 137.5M762.5 137.5L737.5 162.5M1312.5 187.5L1287.5 187.5L1262.5 187.5L1237.5 187.5L1212.5 187.5L1187.5 187.5L1162.5 162.5L1137.5 162.5L1112.5 162.5L1087.5 162.5L1062.5 162.5L1037.5 162.5L1012.5 162.5L987.5 162.5L962.5 162.5L937.5 162.5L912.5 162.5L887.5 137.5L862.5 137.5L837.5 162.5L812.5 162.5L787.5 137.5L762.5 137.5L737.5 137.5L712.5 137.5L687.5 162.5" stroke="rgba(0, 105, 255, 1)" stroke-width="4.17"></path><path d="M681.25 162.5 a6.25 6.25 0 1 0 12.5 0 a6.25 6.25 0 1 0 -12.5 0zM731.25 112.5 a6.25 6.25 0 1 0 12.5 0 a6.25 6.25 0 1 0 -12.5 0zM856.25 162.5 a6.25 6.25 0 1 0 12.5 0 a6.25 6.25 0 1 0 -12.5 0zM656.25 137.5 a6.25 6.25 0 1 0 12.5 0 a6.25 6.25 0 1 0 -12.5 0zM1006.25 137.5 a6.25 6.25 0 1 0 12.5 0 a6.25 6.25 0 1 0 -12.5 0zM906.25 137.5 a6.25 6.25 0 1 0 12.5 0 a6.25 6.25 0 1 0 -12.5 0zM731.25 162.5 a6.25 6.25 0 1 0 12.5 0 a6.25 6.25 0 1 0 -12.5 0z" fill="rgba(0, 105, 255, 1)"></path><path d="M1212.5 387.5L1187.5 387.5L1162.5 387.5L1137.5 412.5L1112.5 412.5L1087.5 412.5M1037.5 387.5L1012.5 412.5L987.5 412.5L962.5 412.5L937.5 387.5M1287.5 387.5L1262.5 412.5L1237.5 412.5L1212.5 412.5M1162.5 362.5L1137.5 362.5L1112.5 362.5M712.5 412.5L687.5 437.5L662.5 437.5M737.5 412.5L712.5 387.5L687.5 387.5M1312.5 387.5L1287.5 387.5L1262.5 387.5L1237.5 387.5L1212.5 387.5L1187.5 362.5L1162.5 362.5L1137.5 387.5L1112.5 387.5L1087.5 387.5L1062.5 387.5L1037.5 387.5L1012.5 387.5L987.5 387.5L962.5 387.5L937.5 362.5L912.5 362.5L887.5 362.5L862.5 362.5L837.5 387.5L812.5 412.5L787.5 412.5L762.5 412.5L737.5 412.5L712.5 412.5L687.5 412.5" stroke="rgba(0, 105, 255, 1)" stroke-width="4.17"></path><path d="M681.25 412.5 a6.25 6.25 0 1 0 12.5 0 a6.25 6.25 0 1 0 -12.5 0zM1081.25 412.5 a6.25 6.25 0 1 0 12.5 0 a6.25 6.25 0 1 0 -12.5 0zM931.25 387.5 a6.25 6.25 0 1 0 12.5 0 a6.25 6.25 0 1 0 -12.5 0zM1206.25 412.5 a6.25 6.25 0 1 0 12.5 0 a6.25 6.25 0 1 0 -12.5 0zM1106.25 362.5 a6.25 6.25 0 1 0 12.5 0 a6.25 6.25 0 1 0 -12.5 0zM656.25 437.5 a6.25 6.25 0 1 0 12.5 0 a6.25 6.25 0 1 0 -12.5 0zM681.25 387.5 a6.25 6.25 0 1 0 12.5 0 a6.25 6.25 0 1 0 -12.5 0z" fill="rgba(0, 105, 255, 1)"></path><path d="M1237.5 162.5L1212.5 137.5M1287.5 162.5L1262.5 137.5L1237.5 112.5M1312.5 162.5L1287.5 162.5L1262.5 162.5L1237.5 162.5L1212.5 162.5L1187.5 162.5" stroke="rgba(0, 105, 255, 1)" stroke-width="4.17"></path><path d="M1181.25 162.5 a6.25 6.25 0 1 0 12.5 0 a6.25 6.25 0 1 0 -12.5 0zM1206.25 137.5 a6.25 6.25 0 1 0 12.5 0 a6.25 6.25 0 1 0 -12.5 0zM1231.25 112.5 a6.25 6.25 0 1 0 12.5 0 a6.25 6.25 0 1 0 -12.5 0z" fill="rgba(0, 105, 255, 1)"></path></g></g><defs><mask id="SvgjsMask1794"><rect width="1280" height="560" fill="#ffffff"></rect></mask><mask id="SvgjsMask1795"><rect width="1280" height="560" fill="white"></rect><path d="M1184.37 287.5 a3.13 3.13 0 1 0 6.26 0 a3.13 3.13 0 1 0 -6.26 0z" fill="black"></path><path d="M834.37 237.5 a3.13 3.13 0 1 0 6.26 0 a3.13 3.13 0 1 0 -6.26 0zM834.37 187.5 a3.13 3.13 0 1 0 6.26 0 a3.13 3.13 0 1 0 -6.26 0zM1109.37 237.5 a3.13 3.13 0 1 0 6.26 0 a3.13 3.13 0 1 0 -6.26 0zM1084.37 287.5 a3.13 3.13 0 1 0 6.26 0 a3.13 3.13 0 1 0 -6.26 0zM1009.37 237.5 a3.13 3.13 0 1 0 6.26 0 a3.13 3.13 0 1 0 -6.26 0zM834.37 262.5 a3.13 3.13 0 1 0 6.26 0 a3.13 3.13 0 1 0 -6.26 0z" fill="black"></path><path d="M759.37 387.5 a3.13 3.13 0 1 0 6.26 0 a3.13 3.13 0 1 0 -6.26 0zM809.37 312.5 a3.13 3.13 0 1 0 6.26 0 a3.13 3.13 0 1 0 -6.26 0zM909.37 287.5 a3.13 3.13 0 1 0 6.26 0 a3.13 3.13 0 1 0 -6.26 0zM1134.37 287.5 a3.13 3.13 0 1 0 6.26 0 a3.13 3.13 0 1 0 -6.26 0zM1034.37 287.5 a3.13 3.13 0 1 0 6.26 0 a3.13 3.13 0 1 0 -6.26 0zM659.37 337.5 a3.13 3.13 0 1 0 6.26 0 a3.13 3.13 0 1 0 -6.26 0z" fill="black"></path><path d="M1209.37 237.5 a3.13 3.13 0 1 0 6.26 0 a3.13 3.13 0 1 0 -6.26 0z" fill="black"></path><path d="M959.37 362.5 a3.13 3.13 0 1 0 6.26 0 a3.13 3.13 0 1 0 -6.26 0zM1059.37 362.5 a3.13 3.13 0 1 0 6.26 0 a3.13 3.13 0 1 0 -6.26 0zM1009.37 337.5 a3.13 3.13 0 1 0 6.26 0 a3.13 3.13 0 1 0 -6.26 0zM1084.37 362.5 a3.13 3.13 0 1 0 6.26 0 a3.13 3.13 0 1 0 -6.26 0z" fill="black"></path><path d="M1109.37 212.5 a3.13 3.13 0 1 0 6.26 0 a3.13 3.13 0 1 0 -6.26 0zM1059.37 187.5 a3.13 3.13 0 1 0 6.26 0 a3.13 3.13 0 1 0 -6.26 0zM1134.37 187.5 a3.13 3.13 0 1 0 6.26 0 a3.13 3.13 0 1 0 -6.26 0z" fill="black"></path><path d="M1259.37 362.5 a3.13 3.13 0 1 0 6.26 0 a3.13 3.13 0 1 0 -6.26 0z" fill="black"></path><path d="M684.37 162.5 a3.13 3.13 0 1 0 6.26 0 a3.13 3.13 0 1 0 -6.26 0zM734.37 112.5 a3.13 3.13 0 1 0 6.26 0 a3.13 3.13 0 1 0 -6.26 0zM859.37 162.5 a3.13 3.13 0 1 0 6.26 0 a3.13 3.13 0 1 0 -6.26 0zM659.37 137.5 a3.13 3.13 0 1 0 6.26 0 a3.13 3.13 0 1 0 -6.26 0zM1009.37 137.5 a3.13 3.13 0 1 0 6.26 0 a3.13 3.13 0 1 0 -6.26 0zM909.37 137.5 a3.13 3.13 0 1 0 6.26 0 a3.13 3.13 0 1 0 -6.26 0zM734.37 162.5 a3.13 3.13 0 1 0 6.26 0 a3.13 3.13 0 1 0 -6.26 0z" fill="black"></path><path d="M684.37 412.5 a3.13 3.13 0 1 0 6.26 0 a3.13 3.13 0 1 0 -6.26 0zM1084.37 412.5 a3.13 3.13 0 1 0 6.26 0 a3.13 3.13 0 1 0 -6.26 0zM934.37 387.5 a3.13 3.13 0 1 0 6.26 0 a3.13 3.13 0 1 0 -6.26 0zM1209.37 412.5 a3.13 3.13 0 1 0 6.26 0 a3.13 3.13 0 1 0 -6.26 0zM1109.37 362.5 a3.13 3.13 0 1 0 6.26 0 a3.13 3.13 0 1 0 -6.26 0zM659.37 437.5 a3.13 3.13 0 1 0 6.26 0 a3.13 3.13 0 1 0 -6.26 0zM684.37 387.5 a3.13 3.13 0 1 0 6.26 0 a3.13 3.13 0 1 0 -6.26 0z" fill="black"></path><path d="M1184.37 162.5 a3.13 3.13 0 1 0 6.26 0 a3.13 3.13 0 1 0 -6.26 0zM1209.37 137.5 a3.13 3.13 0 1 0 6.26 0 a3.13 3.13 0 1 0 -6.26 0zM1234.37 112.5 a3.13 3.13 0 1 0 6.26 0 a3.13 3.13 0 1 0 -6.26 0z" fill="black"></path></mask></defs></svg>