<svg xmlns="http://www.w3.org/2000/svg" version="1.0" width="2599.000000" height="123.000000" preserveAspectRatio="xMidYMid meet" style=""><rect id="backgroundrect" width="100%" height="100%" x="0" y="0" fill="none" stroke="none"/>


<g class="currentLayer" style=""><title>Layer 1</title><g transform="translate(0,123) scale(0.10000000149011612,-0.10000000149011612) " fill="#0069ff" stroke="none" id="svg_1" class="selected" fill-opacity="1">
<path d="M20675 1219 c-89 -12 -105 -41 -105 -194 0 -164 40 -255 137 -308 76 -41 138 -46 518 -39 l350 5 26 27 c61 61 63 178 4 237 l-33 33 -376 0 -376 0 0 -90 c0 -101 -4 -105 -61 -67 -55 36 -79 96 -79 194 l0 83 428 0 c475 0 494 -2 574 -63 67 -51 93 -107 93 -197 0 -64 -4 -83 -30 -128 -35 -64 -71 -96 -145 -131 l-55 -26 -380 -6 c-395 -6 -422 -9 -485 -52 -91 -61 -124 -155 -118 -333 4 -148 4 -148 145 -152 131 -5 177 7 203 51 18 28 20 51 20 205 l0 172 95 0 94 0 178 -210 178 -209 229 -1 228 0 -62 70 c-34 38 -119 134 -190 212 l-128 143 43 11 c154 40 260 157 288 317 28 168 -62 346 -211 415 -57 27 -59 27 -322 29 -146 2 -348 4 -450 6 -102 1 -203 0 -225 -4z m819 -345 c26 -10 38 -41 26 -64 -10 -19 -21 -20 -305 -20 l-295 0 0 45 0 45 279 0 c154 0 287 -3 295 -6z m-676 -593 c-3 -162 -3 -161 -85 -161 l-53 0 0 103 c0 93 2 106 25 140 27 39 94 81 108 67 5 -4 7 -71 5 -149z m740 9 c73 -82 132 -152 132 -155 0 -3 -35 -5 -77 -5 l-78 0 -120 137 c-168 191 -161 173 -68 173 l79 0 132 -150z" id="svg_2" fill="#0069ff"/>
<path d="M623 1210 c-41 -17 -100 -116 -358 -594 -277 -514 -284 -530 -234 -568 23 -17 44 -20 180 -21 199 -2 192 -6 276 141 l47 82 227 0 228 0 55 -94 c84 -143 75 -139 293 -134 120 3 187 8 194 15 22 22 10 74 -33 150 -49 86 -91 127 -145 142 -58 16 -841 14 -873 -2 -14 -7 -53 -58 -89 -116 l-65 -103 -103 4 c-57 3 -105 7 -108 10 -5 4 487 897 531 964 15 23 21 24 114 24 70 0 101 -4 109 -14 20 -24 221 -396 227 -420 3 -13 1 -34 -6 -45 -9 -18 -20 -21 -70 -21 l-59 0 -61 110 c-67 120 -87 140 -138 140 -44 0 -74 -32 -131 -140 -56 -105 -61 -159 -18 -196 28 -24 30 -24 250 -24 122 0 239 5 259 10 57 16 88 60 88 125 0 29 -6 70 -14 91 -25 72 -243 448 -271 469 -23 17 -44 20 -153 22 -70 2 -137 -2 -149 -7z m173 -532 c16 -29 31 -56 32 -60 2 -5 -26 -8 -62 -8 -36 0 -66 2 -66 5 0 11 55 115 60 115 4 0 20 -24 36 -52z m534 -451 c22 -11 69 -79 70 -99 0 -5 -44 -8 -98 -8 -111 0 -131 8 -162 70 -11 22 -20 42 -20 45 0 11 186 4 210 -8z" id="svg_3" fill="#0069ff"/>
<path d="M1904 1209 c-17 -5 -39 -18 -50 -30 -18 -20 -19 -40 -19 -363 0 -387 6 -426 70 -491 60 -59 98 -65 446 -65 288 0 312 1 364 21 74 27 165 112 202 187 25 50 28 68 28 152 0 88 -3 101 -33 162 -39 80 -101 138 -181 170 -53 22 -71 23 -354 26 l-298 3 7 -294 c5 -203 4 -296 -4 -301 -22 -13 -86 19 -106 54 -20 33 -21 54 -24 341 l-3 307 306 7 c419 10 456 8 547 -37 252 -125 345 -407 221 -666 -54 -112 -182 -213 -304 -241 -26 -6 -218 -11 -466 -11 l-423 0 0 -61 0 -60 453 3 c403 4 458 6 507 22 163 54 282 155 349 297 43 90 71 206 71 291 -1 216 -138 431 -336 530 l-87 43 -196 6 c-277 10 -650 9 -687 -2z m784 -373 c52 -22 114 -91 130 -144 29 -95 5 -180 -68 -245 -70 -64 -84 -67 -330 -67 l-220 0 0 241 0 241 223 -4 c187 -3 229 -7 265 -22z" id="svg_4" fill="#0069ff"/>
<path d="M6782 635 c3 -567 4 -587 22 -601 15 -10 52 -14 142 -14 67 0 130 3 138 6 37 14 41 43 46 348 l5 300 309 -332 309 -332 161 2 161 3 3 548 c2 606 4 594 -60 632 -26 15 -58 20 -170 23 l-138 5 -1 -324 0 -324 -242 247 c-143 146 -254 252 -272 258 -37 14 -90 5 -128 -22 -56 -40 -57 -49 -57 -508 l0 -420 -61 0 -62 0 4 543 4 542 -58 3 -57 3 2 -586z m1188 -20 l0 -495 -79 0 -80 0 -335 356 -336 356 0 48 c0 59 16 76 51 52 13 -9 162 -156 331 -327 l307 -310 1 408 0 407 70 0 70 0 0 -495z" id="svg_5" fill="#0069ff"/>
<path d="M8806 1204 c-124 -30 -243 -116 -319 -232 -136 -206 -152 -426 -47 -647 62 -130 169 -223 315 -272 80 -27 82 -27 415 -30 320 -4 336 -3 367 16 21 13 35 33 42 58 12 43 14 150 5 242 l-7 61 -299 0 c-351 0 -372 3 -438 69 -104 104 -89 268 32 348 l42 28 338 3 339 3 -3 52 -3 52 -350 0 -350 0 -51 -27 c-99 -52 -162 -155 -171 -281 -13 -171 77 -299 239 -343 39 -10 122 -14 316 -14 l262 0 0 -80 0 -80 -313 0 c-340 0 -388 6 -477 57 -132 77 -203 230 -203 438 0 241 114 395 339 461 50 14 115 18 412 21 l352 5 0 54 0 54 -362 -1 c-277 0 -377 -4 -422 -15z" id="svg_6" fill="#0069ff"/>
<path d="M9981 1212 c-13 -4 -34 -20 -45 -35 -18 -25 -21 -45 -24 -156 -2 -75 1 -146 8 -170 16 -60 70 -116 138 -142 54 -21 76 -23 385 -27 l327 -4 0 -70 0 -70 -312 4 c-348 3 -387 -2 -462 -64 -70 -57 -81 -93 -81 -259 0 -133 2 -149 20 -169 11 -12 31 -27 45 -32 16 -6 226 -7 583 -3 l558 8 -3 138 c-3 136 -3 139 -31 166 l-27 28 -415 3 -415 3 0 39 0 40 305 0 c379 0 348 -16 343 177 -4 188 26 173 -349 173 l-299 0 0 38 0 37 415 0 415 0 27 28 c28 27 28 29 31 172 l3 145 -253 0 c-139 0 -390 2 -558 5 -168 2 -316 1 -329 -3z m1029 -173 l0 -71 -435 7 -435 7 0 -92 0 -92 -32 6 c-79 16 -98 55 -98 209 l0 97 500 0 500 0 0 -71z m-870 -696 l0 -96 435 6 435 7 0 -70 0 -70 -477 0 c-263 0 -489 -3 -502 -7 l-23 -6 4 119 c4 136 19 177 71 199 56 25 57 23 57 -82z" id="svg_7" fill="#0069ff"/>
<path d="M11523 1205 c-52 -22 -55 -50 -51 -415 5 -365 11 -402 73 -465 60 -59 98 -65 446 -65 370 0 384 3 484 104 89 89 110 138 110 256 0 82 -4 103 -27 152 -37 79 -96 140 -171 174 l-62 29 -304 3 -304 3 4 -298 4 -298 -30 4 c-43 5 -62 17 -82 54 -16 28 -18 68 -21 338 l-3 307 133 7 c73 4 250 5 393 3 l261 -3 69 -34 c158 -78 275 -259 275 -426 -1 -232 -153 -436 -361 -484 -26 -6 -218 -11 -466 -11 l-423 0 0 -61 0 -60 453 3 c497 4 489 4 622 70 211 107 344 407 292 655 -49 227 -240 424 -451 462 -94 17 -822 14 -863 -4z m778 -361 c71 -21 141 -90 157 -157 26 -101 5 -175 -66 -239 -71 -65 -89 -68 -333 -68 l-219 0 0 240 0 240 203 0 c157 0 216 -4 258 -16z" id="svg_8" fill="#0069ff"/>
<path d="M14339 1206 c-63 -17 -131 -58 -162 -99 -49 -64 -62 -113 -62 -227 0 -92 3 -112 26 -160 32 -68 79 -116 144 -146 28 -12 176 -50 330 -84 368 -81 355 -77 355 -100 0 -10 -5 -22 -11 -25 -13 -9 -429 -7 -596 2 l-123 6 0 -57 0 -56 386 0 386 0 33 33 c41 41 53 93 34 144 -25 65 -40 70 -408 143 -382 75 -401 82 -441 165 -18 37 -22 63 -22 136 0 82 2 94 29 137 21 35 43 54 87 77 58 29 63 30 260 37 111 3 285 7 389 7 l187 1 0 -73 0 -74 -242 -6 c-133 -4 -286 -7 -340 -7 -85 0 -105 -3 -148 -25 -52 -26 -70 -49 -70 -87 0 -33 43 -93 77 -106 15 -6 156 -39 313 -72 188 -41 303 -70 338 -88 95 -46 142 -123 142 -228 -1 -92 -64 -180 -165 -226 -50 -23 -51 -23 -437 -20 l-388 4 0 -57 0 -56 403 3 c391 4 404 5 465 27 127 47 200 133 222 262 27 157 -20 271 -143 350 -83 54 -149 73 -441 128 -232 44 -290 60 -275 75 3 3 160 10 349 15 202 6 358 15 377 21 56 20 67 50 71 193 l4 127 -443 -1 c-319 0 -457 -4 -490 -13z" id="svg_9" fill="#0069ff"/>
<path d="M15765 1209 c-41 -20 -49 -48 -53 -183 -6 -192 20 -255 127 -305 l56 -26 338 -3 337 -3 0 -69 0 -69 -327 -3 -328 -3 -55 -26 c-69 -33 -115 -79 -135 -137 -18 -53 -21 -236 -5 -294 20 -71 -10 -68 627 -68 l573 0 0 130 c0 144 -9 177 -55 198 -19 9 -138 12 -430 12 l-405 0 0 46 0 46 298 -3 c163 -2 307 0 318 4 29 10 34 32 34 169 0 109 -2 119 -24 145 l-24 28 -301 3 -301 3 0 35 0 34 411 0 c448 -1 448 -1 469 56 6 14 10 83 10 153 l0 128 -107 6 c-170 11 -1025 7 -1048 -4z m1045 -159 l0 -70 -435 0 -435 0 0 -90 0 -90 -27 6 c-82 19 -103 62 -103 209 l0 105 500 0 500 0 0 -70z m-435 -790 l435 0 0 -70 0 -70 -500 0 -500 0 0 96 c0 146 22 198 95 221 l30 10 3 -94 3 -93 434 0z" id="svg_10" fill="#0069ff"/>
<path d="M18065 1210 c-297 -5 -324 -7 -373 -27 -234 -95 -396 -354 -379 -608 15 -217 128 -398 302 -484 119 -59 165 -64 520 -62 292 1 322 3 345 20 42 30 53 86 45 226 l-7 124 -321 3 c-310 3 -323 4 -364 25 -157 84 -164 308 -13 393 l45 25 333 3 332 3 0 37 c0 20 -4 42 -8 48 -5 8 -104 13 -337 15 -297 4 -335 2 -381 -14 -73 -25 -127 -76 -166 -155 -30 -61 -33 -74 -33 -162 0 -108 20 -165 82 -226 88 -88 179 -107 498 -102 l230 3 3 -83 3 -82 -288 0 c-158 0 -316 5 -351 10 -230 38 -356 210 -355 485 0 192 78 336 220 408 114 58 130 60 518 66 l360 6 0 55 0 55 -70 1 c-38 0 -214 -2 -390 -6z" id="svg_11" fill="#0069ff"/>
<path d="M18930 893 c0 -365 5 -402 67 -530 41 -85 129 -185 210 -239 31 -21 96 -51 143 -68 77 -28 96 -30 205 -30 335 3 589 175 656 444 11 41 14 142 14 400 l0 345 -143 0 -144 0 -24 -28 -24 -28 0 -288 0 -287 -27 -55 c-50 -98 -156 -152 -298 -153 -90 -1 -153 23 -199 74 -58 64 -64 102 -72 455 l-7 315 -54 0 -54 0 3 -342 c3 -301 6 -349 22 -390 26 -70 95 -142 174 -180 65 -32 70 -33 192 -33 106 1 134 4 183 24 109 43 193 128 222 223 12 41 15 109 15 324 0 306 0 304 70 304 71 0 70 3 70 -314 0 -228 -3 -293 -16 -337 -54 -185 -249 -327 -494 -360 -241 -33 -488 125 -560 358 -18 60 -20 93 -20 394 l0 329 -55 0 -55 0 0 -327z" id="svg_12" fill="#0069ff"/>
<path d="M22250 619 l0 -600 175 3 c202 4 208 6 225 97 6 32 10 263 10 577 l0 524 -55 0 -55 0 0 -550 0 -550 -95 0 -95 0 0 550 0 550 -55 0 -55 0 0 -601z" id="svg_13" fill="#0069ff"/>
<path d="M23005 1134 c-13 -156 5 -233 61 -254 14 -6 102 -10 195 -10 l169 0 0 -425 0 -425 195 0 195 0 0 424 0 424 196 4 196 3 24 28 c23 27 24 34 24 173 l0 144 -215 0 c-193 0 -220 -2 -253 -19 -72 -37 -72 -35 -72 -443 0 -199 -3 -420 -7 -490 l-6 -128 -73 0 -73 0 -3 492 -3 493 -23 33 c-42 59 -58 62 -301 62 l-219 0 -7 -86z m392 -32 c16 -10 33 -57 33 -93 l0 -29 -155 0 -155 0 0 65 0 65 133 0 c72 0 137 -4 144 -8z m753 -57 l0 -65 -161 0 -161 0 7 48 c12 79 18 82 177 82 l138 0 0 -65z" id="svg_14" fill="#0069ff"/>
<path d="M24580 1214 c0 -3 112 -152 250 -332 l250 -327 2 -265 3 -265 140 -3 c224 -4 225 -4 225 265 0 103 4 204 9 224 5 24 92 144 265 368 141 182 256 334 256 336 0 3 -30 5 -67 5 l-68 0 -240 -306 c-132 -169 -245 -316 -252 -328 -9 -15 -12 -87 -13 -238 l0 -218 -75 0 -75 0 0 73 c0 41 -3 134 -6 208 l-6 134 197 255 c109 140 227 292 262 338 l64 82 -65 0 -66 0 -141 -177 c-77 -98 -143 -179 -147 -180 -4 -1 -70 74 -146 167 -76 92 -150 173 -163 179 -24 11 -393 16 -393 5z m312 -90 c33 -6 48 -21 144 -143 59 -75 122 -154 141 -177 l32 -40 -43 -43 -43 -42 -177 218 -177 218 33 6 c48 9 50 9 90 3z" id="svg_15" fill="#0069ff"/>
<path d="M3445 1178 c105 -249 440 -967 461 -990 56 -57 152 -58 207 0 15 16 117 221 235 473 l208 444 83 3 82 3 -14 -28 c-33 -65 -487 -1059 -487 -1066 0 -4 28 -7 62 -5 l61 3 263 590 c145 325 263 593 263 598 1 4 -86 6 -191 5 l-192 -3 -166 -347 c-91 -190 -168 -349 -171 -352 -3 -3 -77 143 -165 325 -109 229 -167 338 -187 355 -28 23 -34 24 -197 24 l-169 0 14 -32z m448 -431 c184 -375 196 -409 160 -449 -19 -21 -52 -23 -76 -5 -13 9 -387 796 -387 813 0 2 28 4 63 4 l62 -1 178 -362z" id="svg_16" fill="#0069ff"/>
<path d="M5590 1198 c-14 -8 -40 -34 -59 -59 -55 -75 -553 -1009 -558 -1049 -4 -27 0 -39 17 -55 20 -18 39 -20 179 -23 199 -4 205 -1 276 123 l52 90 231 3 231 2 55 -93 c83 -140 66 -132 278 -130 101 2 187 7 198 13 27 14 26 59 -1 113 -44 86 -89 143 -130 167 l-43 23 -427 0 c-369 1 -430 -2 -451 -15 -12 -8 -50 -61 -83 -117 l-60 -102 -50 5 c-27 3 -76 6 -107 6 -32 0 -58 4 -58 9 0 9 526 959 543 979 7 9 38 12 111 10 l101 -3 117 -215 c65 -118 118 -222 118 -231 0 -33 -25 -50 -81 -56 l-57 -6 -56 106 c-78 145 -83 150 -139 150 -25 0 -53 -5 -61 -12 -23 -19 -106 -171 -118 -216 -15 -55 -1 -95 41 -117 28 -14 61 -16 249 -11 119 2 231 9 249 15 18 5 44 24 59 41 24 29 26 37 22 99 -5 65 -11 79 -134 299 -77 140 -138 238 -153 248 -34 22 -263 28 -301 9z m179 -542 c17 -29 31 -56 31 -60 0 -3 -29 -6 -65 -6 -36 0 -65 4 -65 10 0 18 54 119 61 114 4 -2 22 -29 38 -58z m536 -442 c9 -4 27 -28 40 -54 l24 -48 -79 -7 c-105 -9 -142 3 -175 59 -14 24 -25 46 -25 49 0 9 193 9 215 1z" id="svg_17" fill="#0069ff"/>
</g></g></svg>