<?xml version="1.0" standalone="no"?>
<!DOCTYPE svg PUBLIC "-//W3C//DTD SVG 20010904//EN"
 "http://www.w3.org/TR/2001/REC-SVG-20010904/DTD/svg10.dtd">
<svg version="1.0" xmlns="http://www.w3.org/2000/svg"
 width="629.000000pt" height="614.000000pt" viewBox="0 0 629.000000 614.000000"
 preserveAspectRatio="xMidYMid meet">

<g transform="translate(0.000000,614.000000) scale(0.100000,-0.100000)"
fill="#000000" stroke="none">
<path d="M2735 6129 c-953 -72 -1825 -614 -2315 -1438 -244 -411 -385 -881
-406 -1353 l-7 -148 291 0 290 0 7 98 c22 326 82 584 195 843 137 312 346 599
600 823 344 303 726 486 1187 567 174 31 558 34 728 6 294 -49 519 -123 755
-249 220 -117 384 -239 571 -427 380 -381 603 -836 674 -1374 12 -98 15 -256
15 -943 l0 -824 296 0 295 0 -4 868 c-3 743 -6 883 -20 982 -83 565 -284 1039
-625 1470 -97 123 -341 366 -462 462 -595 469 -1322 693 -2065 637z"/>
<path d="M2860 4813 c-152 -11 -415 -67 -403 -86 3 -6 1 -7 -5 -3 -13 8 -172
-53 -172 -66 0 -5 -4 -7 -9 -3 -5 3 -17 -2 -25 -11 -9 -8 -16 -13 -16 -9 0 6
-64 -27 -142 -75 -21 -12 -35 -27 -31 -33 3 -5 2 -7 -4 -4 -17 11 -93 -52 -87
-71 5 -13 4 -14 -4 -3 -8 11 -15 9 -38 -10 -67 -55 -204 -204 -199 -217 2 -7
1 -11 -4 -8 -11 7 -43 -29 -34 -38 5 -4 3 -6 -4 -4 -15 4 -75 -80 -67 -94 4
-6 3 -8 -3 -5 -28 17 -215 -387 -199 -430 3 -8 2 -12 -3 -9 -11 7 -49 -174
-62 -304 -12 -115 -6 -243 17 -389 15 -98 57 -260 77 -295 6 -12 12 -29 14
-39 8 -50 143 -294 205 -372 75 -94 110 -134 187 -208 54 -52 96 -85 103 -81
6 4 8 3 5 -3 -6 -9 26 -38 50 -46 4 -1 16 -10 28 -21 39 -36 146 -97 157 -90
6 4 8 3 5 -3 -4 -6 31 -28 81 -51 163 -75 361 -131 484 -136 32 -1 61 -6 65
-9 10 -10 261 -8 267 2 3 5 21 8 40 6 18 -2 66 3 107 11 41 8 85 17 99 20 134
25 374 132 529 235 101 67 325 275 314 292 -3 5 -1 7 4 4 6 -4 23 12 39 36 16
23 32 44 37 45 4 2 7 10 7 18 0 8 5 14 10 14 6 0 14 8 18 17 4 10 25 45 46 78
78 118 185 386 189 472 1 18 5 33 8 33 11 0 31 165 35 280 2 63 -1 156 -6 205
-12 113 -50 295 -62 295 -5 0 -7 4 -4 9 6 9 -35 129 -65 194 -15 34 -24 34
-54 1 -21 -22 -23 -30 -13 -43 11 -14 11 -14 -3 -4 -13 11 -19 10 -32 -5 -13
-15 -14 -21 -4 -32 10 -12 9 -12 -4 -2 -14 10 -20 10 -33 -4 -14 -13 -14 -19
-4 -33 11 -14 11 -14 -3 -4 -13 11 -19 10 -32 -5 -13 -15 -14 -21 -4 -32 10
-12 9 -12 -6 -1 -15 12 -20 11 -38 -4 -11 -11 -17 -25 -15 -32 3 -7 0 -12 -7
-10 -7 1 -11 -4 -9 -11 1 -8 -1 -11 -6 -8 -12 7 -64 -48 -55 -58 5 -4 1 -6 -7
-4 -8 2 -14 -3 -12 -10 1 -8 -1 -11 -6 -8 -12 7 -64 -48 -55 -58 5 -4 1 -6 -7
-4 -8 2 -14 -3 -12 -10 1 -8 -1 -11 -6 -8 -12 7 -64 -48 -55 -58 5 -4 1 -6 -7
-4 -8 2 -14 -3 -12 -10 1 -8 -1 -11 -6 -8 -12 7 -64 -48 -55 -58 5 -4 1 -6 -7
-4 -8 2 -14 -3 -12 -10 1 -8 -1 -11 -6 -8 -12 7 -64 -48 -55 -58 5 -4 1 -6 -7
-4 -8 2 -14 -3 -12 -10 1 -8 -1 -11 -6 -8 -12 7 -64 -48 -55 -58 5 -4 1 -6 -7
-4 -8 2 -14 -3 -12 -10 1 -8 -1 -11 -6 -8 -12 7 -64 -48 -55 -58 5 -4 1 -6 -7
-4 -8 2 -14 -3 -12 -10 1 -8 -1 -11 -6 -8 -12 7 -64 -48 -55 -58 5 -4 1 -6 -7
-4 -9 2 -14 -3 -12 -12 2 -8 0 -12 -4 -7 -10 9 -65 -43 -58 -55 3 -5 0 -7 -8
-6 -7 2 -12 -4 -10 -12 2 -8 0 -12 -4 -7 -10 9 -65 -43 -58 -55 3 -5 0 -7 -8
-6 -7 2 -12 -4 -10 -12 2 -8 0 -12 -4 -7 -10 9 -65 -43 -58 -55 3 -5 0 -7 -8
-6 -7 2 -12 -4 -10 -12 2 -8 0 -12 -4 -7 -10 9 -65 -43 -58 -55 3 -5 0 -7 -8
-6 -7 2 -12 -4 -10 -12 2 -8 0 -12 -4 -7 -10 9 -65 -43 -58 -55 3 -5 0 -7 -8
-6 -7 2 -12 -4 -10 -12 2 -8 0 -12 -4 -7 -10 9 -65 -43 -58 -55 3 -5 0 -7 -8
-6 -7 2 -12 -4 -10 -12 2 -8 0 -12 -4 -7 -10 9 -65 -43 -58 -55 3 -5 0 -7 -8
-6 -7 2 -12 -3 -10 -10 2 -10 -2 -10 -17 -2 -11 5 -23 15 -26 21 -5 7 -12 6
-23 -3 -15 -11 -15 -11 -4 3 10 14 10 20 -4 33 -13 14 -19 14 -33 4 -13 -10
-14 -10 -4 2 10 11 9 17 -4 32 -13 15 -19 16 -32 5 -14 -10 -14 -10 -3 4 10
14 10 20 -4 33 -13 14 -19 14 -33 4 -13 -10 -14 -10 -4 2 10 11 9 17 -4 32
-13 15 -19 16 -32 5 -14 -10 -14 -10 -3 4 10 14 10 20 -4 33 -13 14 -19 14
-33 4 -13 -10 -14 -10 -4 2 10 11 9 17 -4 32 -13 15 -19 16 -32 5 -14 -10 -14
-10 -3 4 10 14 10 20 -4 33 -13 14 -19 14 -33 4 -13 -10 -14 -10 -4 2 10 11 9
17 -4 32 -13 15 -19 16 -32 5 -14 -10 -14 -10 -3 4 10 14 10 20 -4 33 -13 14
-19 14 -33 4 -13 -10 -14 -10 -4 2 10 11 9 17 -4 32 -13 15 -19 16 -32 5 -14
-10 -14 -10 -3 4 10 14 10 20 -4 33 -13 14 -19 14 -33 4 -14 -11 -14 -11 -3 3
10 13 9 19 -3 29 -13 11 -15 65 -15 392 0 284 -3 377 -12 372 -7 -4 -8 -3 -4
5 4 7 14 11 22 9 8 -2 125 -113 260 -247 l244 -244 570 569 569 569 -49 46
c-80 76 -169 141 -183 133 -6 -4 -9 -4 -5 1 14 15 -201 142 -216 128 -3 -3 -6
-2 -6 4 0 14 -78 45 -92 37 -6 -4 -8 -3 -5 3 7 11 -158 66 -263 87 -145 29
-288 39 -420 29z m-965 -2793 c3 -6 -1 -7 -9 -4 -18 7 -21 14 -7 14 6 0 13 -4
16 -10z"/>
<path d="M11 2947 c4 -23 8 -46 9 -50 0 -5 6 -7 13 -4 6 2 20 0 30 -5 12 -6
17 -5 17 4 0 9 2 10 8 2 4 -7 16 -13 26 -15 13 -3 20 -14 22 -34 1 -16 6 -49
9 -72 l6 -42 -49 -25 c-40 -20 -49 -30 -47 -48 1 -13 3 -33 4 -45 1 -25 27
-24 67 2 13 8 26 15 29 15 3 0 58 26 122 59 65 32 141 68 170 81 28 13 49 28
47 32 -3 4 3 5 12 1 14 -5 16 -2 11 18 -4 13 -7 36 -7 51 0 29 -10 35 -80 43
-45 5 -366 60 -406 70 -20 4 -21 2 -13 -38z m329 -99 c0 -5 10 -8 23 -9 12 0
16 -3 9 -6 -6 -2 -10 -9 -7 -14 4 -5 0 -6 -8 -3 -8 3 -21 -1 -28 -8 -8 -7 -23
-14 -34 -16 -11 -2 -30 -10 -42 -18 -26 -16 -29 -13 -32 44 l-3 42 61 -2 c34
-2 61 -6 61 -10z"/>
<path d="M282 2591 c-143 -48 -177 -77 -176 -149 0 -26 3 -56 7 -67 3 -11 6
-23 6 -27 1 -4 15 -21 32 -39 20 -21 37 -29 50 -26 10 3 17 1 13 -4 -5 -9 51
-5 86 6 16 5 17 10 8 35 -5 17 -14 28 -18 25 -4 -3 -6 3 -4 13 4 15 -1 17 -39
14 -41 -4 -45 -2 -57 27 -7 17 -9 38 -5 48 5 10 8 21 7 24 -1 4 4 6 11 6 14
-2 129 35 137 43 3 3 16 6 30 8 14 1 45 5 70 8 35 5 49 2 59 -9 14 -17 23 -90
10 -82 -4 3 -10 1 -14 -5 -3 -5 -1 -10 6 -10 7 0 9 -3 6 -6 -4 -4 -12 -2 -20
4 -21 18 -38 -1 -31 -36 10 -49 26 -57 73 -32 51 25 69 54 69 105 0 47 -33
129 -48 120 -6 -4 -9 -1 -8 6 2 7 -8 18 -22 26 -43 22 -118 14 -238 -26z"/>
<path d="M590 2235 c-8 -2 -91 -11 -185 -20 -93 -9 -177 -19 -185 -23 -8 -3
-18 -6 -22 -6 -17 -2 -17 -16 -2 -50 14 -27 22 -34 38 -31 12 2 37 6 56 7 19
2 39 8 43 13 5 6 6 2 3 -8 -3 -10 -2 -26 4 -36 19 -37 50 -122 41 -117 -4 3
-25 -9 -46 -27 l-37 -32 18 -40 c10 -22 20 -42 21 -44 6 -9 62 53 56 62 -3 6
-1 7 6 3 14 -9 43 12 35 25 -3 5 -2 8 3 7 9 -3 32 15 117 93 34 31 82 74 108
95 52 43 54 50 34 99 -14 32 -19 35 -53 34 -21 -1 -45 -3 -53 -4z m94 -55 c-6
-6 -10 -3 -10 10 0 13 4 16 10 10 7 -7 7 -13 0 -20z m-124 -52 c-13 -5 -19
-13 -14 -20 4 -7 4 -10 -1 -6 -4 4 -27 -8 -50 -27 -23 -19 -46 -31 -50 -27 -6
6 -35 70 -35 77 0 2 29 7 65 10 36 4 68 12 71 17 3 5 12 4 21 -3 13 -11 12
-14 -7 -21z"/>
<path d="M730 1969 c-25 -16 -52 -36 -61 -43 -9 -8 -26 -17 -36 -20 -11 -3
-28 -14 -39 -24 -10 -9 -36 -26 -57 -37 -22 -11 -50 -30 -63 -42 -14 -12 -27
-23 -29 -23 -3 0 -19 -7 -35 -15 -31 -16 -31 -16 -13 -45 9 -16 21 -26 27 -23
6 3 8 3 4 -2 -19 -20 91 -151 118 -141 7 3 14 0 16 -6 6 -17 83 1 123 28 20
13 41 24 47 24 5 0 7 7 4 16 -5 14 -4 15 8 5 11 -10 17 -7 30 11 9 13 18 21
20 18 8 -9 66 40 66 56 0 8 4 13 9 10 11 -7 31 47 31 82 0 27 -56 132 -71 132
-5 0 -8 3 -7 8 3 14 -25 62 -36 61 -6 0 -31 -14 -56 -30z m60 -121 c11 -18 20
-43 20 -55 0 -24 -47 -72 -100 -103 -114 -66 -155 -72 -180 -25 -7 14 -17 25
-22 25 -27 0 31 69 60 70 6 0 12 5 12 10 0 6 6 10 13 10 6 1 46 23 87 50 41
27 78 50 83 50 4 0 16 -15 27 -32z"/>
<path d="M920 1645 c-36 -30 -107 -90 -158 -133 -52 -42 -105 -87 -119 -99
l-26 -21 33 -39 c19 -21 41 -47 50 -57 8 -11 24 -29 35 -41 11 -12 25 -31 31
-41 15 -26 26 -27 57 -1 l28 22 -37 48 c-28 36 -40 45 -47 35 -6 -9 -7 -8 -3
4 3 10 -2 24 -10 33 -12 11 -13 19 -5 29 6 7 7 17 3 21 -4 5 -2 5 4 2 6 -4 24
5 40 18 16 14 32 25 35 25 4 0 23 -21 44 -46 25 -30 43 -43 53 -39 12 4 12 2
4 -8 -22 -26 1 -26 34 0 27 20 32 29 23 39 -6 8 -15 11 -20 8 -5 -3 -6 1 -3 9
3 8 -6 23 -20 35 -14 11 -26 23 -26 28 0 4 -7 16 -17 26 -13 15 -14 18 -1 18
8 0 24 10 36 23 37 40 52 50 52 35 0 -7 25 -40 55 -72 l56 -60 27 27 c22 22
25 31 16 45 -6 9 -17 17 -25 17 -8 0 -14 5 -14 12 0 9 -113 154 -119 153 0 0
-30 -25 -66 -55z m-6 -213 c3 -5 -1 -9 -9 -9 -8 0 -12 4 -9 9 3 4 7 8 9 8 2 0
6 -4 9 -8z"/>
<path d="M5873 860 c1 -336 0 -610 -3 -610 -3 0 -617 -1 -1365 -3 -1201 -2
-1360 -4 -1360 -17 0 -13 158 -15 1363 -15 l1362 0 0 -107 c0 -102 1 -108 21
-108 19 0 20 5 19 93 -1 50 -1 98 -1 105 1 9 46 12 191 12 185 0 190 1 190 20
0 20 -4 21 -190 18 l-190 -3 0 606 c0 544 -2 607 -16 613 -9 3 -17 6 -20 6 -2
0 -3 -275 -1 -610z"/>
<path d="M1183 1446 c4 -10 1 -13 -8 -10 -13 5 -39 -28 -40 -51 0 -5 -6 -10
-13 -10 -18 0 -43 -35 -35 -48 3 -6 1 -7 -5 -4 -13 9 -114 -111 -105 -125 3
-6 1 -8 -4 -5 -14 9 -37 -19 -27 -34 4 -8 3 -9 -4 -5 -7 4 -25 -8 -41 -26 -27
-29 -28 -34 -14 -45 9 -7 21 -10 27 -6 6 3 8 3 4 -2 -4 -4 -3 -14 3 -21 8 -10
18 -6 45 18 19 17 32 33 31 35 -2 2 11 19 30 39 18 20 30 40 27 46 -4 6 -2 8
4 5 5 -4 22 7 36 24 32 38 33 21 2 -51 -13 -30 -37 -88 -54 -127 l-31 -73 31
-21 c24 -18 34 -20 47 -11 9 7 26 16 38 22 12 5 31 18 43 30 11 11 20 17 20
14 0 -3 13 3 29 12 17 10 27 22 24 27 -3 6 -2 7 4 4 5 -3 26 5 46 19 47 31 47
23 0 -35 -21 -25 -36 -50 -35 -56 2 -5 1 -7 -3 -3 -6 6 -32 -22 -96 -100 -11
-13 -4 -32 12 -32 6 0 18 -9 27 -20 17 -21 18 -20 65 37 26 32 56 69 67 81 11
13 17 29 13 34 -3 6 -1 8 4 5 13 -8 47 28 39 42 -4 5 -1 13 5 17 8 4 9 3 5 -4
-15 -25 6 -10 37 25 18 20 31 43 31 50 -1 7 2 11 6 8 8 -5 50 41 50 55 0 4
-21 25 -47 46 -31 26 -45 32 -40 20 6 -15 5 -16 -5 -8 -15 12 -41 -3 -51 -28
-3 -10 -6 -10 -6 -2 -1 9 -7 8 -26 -4 -14 -9 -22 -21 -18 -27 3 -6 1 -7 -5 -3
-7 4 -33 -8 -59 -26 -113 -78 -143 -87 -107 -33 15 23 15 28 3 36 -11 7 -11 9
4 9 9 0 18 5 18 10 3 19 5 25 22 58 10 18 15 38 11 44 -4 6 -3 8 3 5 12 -8 45
71 36 86 -3 6 -1 7 5 3 6 -3 12 2 14 11 2 11 -13 32 -40 56 -47 40 -57 45 -49
23z"/>
<path d="M3990 1266 c-134 -37 -195 -123 -194 -271 1 -117 63 -200 215 -289
171 -101 209 -138 209 -210 0 -50 -18 -83 -55 -101 -41 -19 -66 -19 -111 0
-40 17 -64 63 -64 125 l0 40 -106 0 -107 0 6 -73 c6 -89 36 -158 85 -195 35
-27 37 -27 218 -30 155 -3 188 -1 216 14 84 42 120 104 126 220 9 165 -40 232
-263 356 -113 64 -144 91 -154 140 -10 51 -2 84 26 112 21 21 35 26 75 26 65
0 94 -28 104 -99 l7 -51 98 0 99 0 0 58 c0 111 -62 197 -162 227 -62 18 -204
19 -268 1z"/>
<path d="M4706 1265 c-105 -30 -170 -102 -203 -225 -22 -83 -25 -448 -5 -550
18 -88 57 -157 110 -195 l44 -30 231 -3 c127 -2 242 0 254 3 l23 5 0 255 0
255 -160 0 -160 0 0 -75 0 -75 60 0 60 0 0 -115 0 -114 -37 -10 c-51 -14 -116
-14 -148 1 -42 19 -64 76 -76 195 -14 135 -5 379 16 450 21 69 52 93 120 93
41 0 58 -5 78 -24 25 -23 47 -80 47 -123 0 -22 3 -23 100 -23 l100 0 0 48 c0
106 -53 193 -146 238 -48 23 -71 28 -158 30 -66 2 -118 -1 -150 -11z"/>
<path d="M5426 1265 c-120 -34 -177 -109 -184 -240 -4 -68 -1 -89 18 -133 30
-68 111 -143 225 -206 48 -27 108 -68 132 -92 39 -40 43 -48 43 -94 0 -63 -21
-96 -69 -111 -50 -15 -113 2 -136 37 -9 14 -19 50 -22 80 l-6 54 -105 0 -105
0 6 -69 c7 -79 27 -134 65 -174 50 -53 67 -57 254 -57 196 0 221 8 282 83 30
38 31 41 34 163 3 117 2 127 -21 167 -29 49 -75 87 -172 145 -195 115 -215
135 -215 211 0 61 41 101 103 101 63 0 93 -26 107 -95 l11 -55 96 0 95 0 -3
78 c-4 68 -8 85 -34 122 -47 67 -113 94 -245 97 -67 1 -123 -3 -154 -12z"/>
<path d="M1546 1123 c-4 -21 -8 -65 -11 -98 -2 -33 -6 -67 -8 -75 -3 -8 -8
-39 -12 -68 -4 -38 -19 -74 -52 -128 -49 -81 -49 -78 8 -109 25 -13 27 -13 48
25 12 22 20 44 16 49 -3 5 0 13 6 17 8 4 9 3 5 -4 -4 -7 -5 -12 -2 -12 3 0 13
14 22 32 9 18 30 46 47 63 17 16 27 24 22 16 -4 -8 18 5 51 28 32 24 83 59
111 79 29 21 53 40 53 43 0 6 -22 14 -43 17 -5 0 -14 8 -20 16 -10 13 -18 11
-57 -19 -25 -19 -44 -39 -43 -44 1 -5 -5 -8 -15 -7 -10 0 -16 -5 -14 -14 2 -8
0 -12 -3 -8 -4 4 -16 3 -27 -3 -18 -10 -19 -7 -16 33 2 32 0 42 -10 40 -8 -1
-11 2 -7 8 3 6 10 8 15 5 9 -6 14 9 23 68 4 22 -2 33 -27 51 -52 39 -54 39
-60 -1z"/>
</g>
</svg>
