<svg width="467.383" height="467.39001" xmlns="http://www.w3.org/2000/svg">

 <g>
  <title>background</title>
  <rect fill="none" id="canvas_background" height="402" width="582" y="-1" x="-1"/>
 </g>
 <g>
  <title>Layer 1</title>
  <path clip-rule="evenodd" fill="#ff9f00" fill-rule="evenodd" id="path4" d="m233.695,0c129.116,0 233.688,104.577 233.688,233.69c0,129.123 -104.572,233.7 -233.688,233.7c-129.121,0 -233.695,-104.577 -233.695,-233.7c0,-129.113 104.575,-233.69 233.695,-233.69z"/>
  <path clip-rule="evenodd" fill="#b78535" fill-rule="evenodd" id="path6" d="m467.383,234.712c-0.334,110.952 -78.342,203.753 -182.242,226.952l-0.338,-0.334c-1.346,-1.002 -2.353,-2.014 -3.698,-3.016c-1.007,-1.012 -2.014,-2.014 -3.025,-3.025c-1.346,-1.012 -2.353,-2.032 -3.359,-3.034c-1.351,-1.012 -2.701,-2.023 -3.703,-3.359c-1.007,-1.012 -2.348,-2.014 -3.359,-3.025c-1.011,-1.011 -2.356,-2.014 -3.368,-3.025c-1.002,-1.012 -2.348,-2.023 -3.364,-3.034c-1.341,-1.003 -2.353,-2.014 -3.693,-3.025c-1.007,-1.002 -2.353,-2.348 -3.364,-3.359c-1.011,-1.011 -2.353,-2.014 -3.359,-3.016c-1.012,-1.012 -2.357,-2.033 -3.369,-3.045c-1.336,-1.002 -2.348,-2.014 -3.359,-3.016c-1.336,-1.012 -2.356,-2.023 -3.363,-3.025c-1.346,-1.346 -2.353,-2.357 -3.696,-3.359c-1.014,-1.012 -2.019,-2.023 -3.025,-2.7c-1.348,-1.346 -2.353,-2.349 -3.696,-3.359c-1.019,-1.012 -2.359,-2.014 -3.364,-3.025c-1.009,-1.012 -2.352,-2.014 -3.366,-3.016c-1.346,-1.346 -2.353,-2.357 -3.362,-3.379c-1.341,-1.012 -2.35,-2.014 -3.366,-3.016c-1.343,-1.012 -2.35,-2.023 -3.693,-3.034c-1.009,-1.003 -2.023,-2.005 -3.364,-3.017c-1.009,-1.011 -2.352,-2.014 -3.364,-3.368c-1.005,-1.012 -2.355,-2.023 -3.362,-3.025c-1.343,-1.012 -2.355,-2.023 -3.359,-3.025c-1.35,-1.012 -2.357,-2.014 -3.701,-3.359c-1.009,-0.668 -2.018,-1.689 -3.027,-2.701c-1.348,-1.012 -2.689,-2.348 -3.701,-3.35c-1.007,-1.012 -2.35,-2.023 -3.364,-3.025c-11.765,-10.431 -22.525,-22.531 -32.276,-35.645c-37.324,-51.783 -49.767,-116.01 -48.084,-178.892c0,-0.334 0,-0.334 0,-0.668c0,-0.343 0,-0.677 0,-1.002c1.348,-12.788 11.094,-23.209 23.878,-24.889c15.128,-2.014 30.257,-5.726 44.718,-11.099c17.149,-6.394 33.96,-14.449 49.769,-23.544c8.737,-4.695 18.491,-4.695 26.898,0c16.138,9.095 32.949,17.15 50.104,23.544c14.448,5.373 29.584,9.085 45.055,11.099c6.385,1.002 12.105,4.027 16.147,8.398c1.341,1.012 2.343,2.033 3.35,3.035c27.909,21.173 74.982,64.214 102.214,92.807z"/>
  <path clip-rule="evenodd" fill="#2775b9" fill-rule="evenodd" id="path8" d="m219.576,395.098c-27.573,-15.47 -51.112,-36.656 -69.607,-62.204c-37.322,-52.126 -49.767,-116 -48.085,-178.882l0,-1.012l0,-0.687c1.346,-12.779 11.097,-23.181 23.875,-24.88c15.126,-2.357 30.26,-6.041 44.716,-11.089c17.152,-6.384 33.97,-14.468 49.769,-23.534c8.403,-5.048 18.493,-5.048 26.896,0c16.148,9.066 32.62,17.15 50.104,23.534c14.468,5.373 29.594,9.076 44.721,11.089c13.456,1.699 23.544,13.123 23.878,26.579c1.341,62.882 -10.766,127.1 -48.424,178.882c-18.485,25.892 -42.029,46.734 -69.601,62.538c-8.747,5.039 -19.842,5.373 -28.242,-0.334zm126.091,-240.418c0,-3.703 -2.691,-6.728 -6.39,-7.396c-16.477,-2.357 -32.948,-6.051 -49.097,-12.111c-16.133,-5.707 -33.621,-14.124 -52.787,-24.879c-2.357,-1.346 -4.707,-1.346 -7.057,0c-19.17,10.755 -36.656,19.173 -52.799,24.879c-16.133,6.06 -32.614,10.087 -49.091,12.111c-3.698,0.668 -6.05,3.693 -6.389,7.396c-1.68,67.587 13.112,123.073 44.384,166.104c16.816,23.544 38.005,42.697 63.896,57.155c1.677,1.689 5.039,1.355 7.394,0c25.219,-14.792 46.4,-33.611 63.55,-57.155c30.938,-43.031 45.731,-98.517 44.386,-166.104z"/>
  <path clip-rule="evenodd" fill="#7cb3e3" fill-rule="evenodd" id="path10" d="m345.667,154.68c0,-3.703 -2.691,-6.728 -6.39,-7.396c-16.477,-2.357 -32.948,-6.051 -49.097,-12.111c-16.133,-5.707 -33.621,-14.124 -52.787,-24.879c-2.357,-1.346 -4.707,-1.346 -7.057,0c-19.17,10.755 -36.656,19.173 -52.799,24.879c-16.133,6.06 -32.614,10.087 -49.091,12.111c-3.698,0.668 -6.05,3.693 -6.389,7.396c-1.68,67.587 13.112,123.073 44.384,166.104c16.816,23.544 38.005,42.697 63.896,57.155c1.677,1.689 5.039,1.355 7.394,0c25.219,-14.792 46.4,-33.611 63.55,-57.155c30.938,-43.031 45.731,-98.517 44.386,-166.104z"/>
  <path clip-rule="evenodd" fill="#ff9f00" fill-rule="evenodd" id="path12" d="m233.695,179.569c28.247,0 51.446,22.857 51.446,51.096c0,28.583 -23.199,51.449 -51.446,51.449c-28.249,0 -51.112,-22.866 -51.112,-51.449c0,-28.239 22.864,-51.096 51.112,-51.096z"/>
  <path clip-rule="evenodd" fill="#ffffff" fill-rule="evenodd" id="path14" d="m214.191,225.626c-2.687,-3.025 -7.732,-3.025 -10.76,0c-2.694,3.035 -2.694,7.73 0,10.755l16.477,16.481c1.682,1.346 3.703,2.023 5.38,2.023c2.016,0 4.032,-0.678 5.382,-2.023l33.29,-33.288c3.021,-3.025 3.021,-7.74 0,-10.755c-3.034,-3.025 -7.734,-3.025 -10.77,0l-27.902,27.896l-11.097,-11.089z"/>
 </g>
</svg>