<svg width="0" height="0" class="hidden">
  <symbol version="1.0" xmlns="http://www.w3.org/2000/svg" viewBox="0 0 2599 123" id="letras">
    <path d="M2067.5 1.1c-8.9 1.2-10.5 4.1-10.5 19.4 0 16.4 4 25.5 13.7 30.8 7.6 4.1 13.8 4.6 51.8 3.9l35-.5 2.6-2.7c6.1-6.1 6.3-17.8.4-23.7l-3.3-3.3H2082v9c0 10.1-.4 10.5-6.1 6.7-5.5-3.6-7.9-9.6-7.9-19.4V13h42.8c47.5 0 49.4.2 57.4 6.3 6.7 5.1 9.3 10.7 9.3 19.7 0 6.4-.4 8.3-3 12.8-3.5 6.4-7.1 9.6-14.5 13.1l-5.5 2.6-38 .6c-39.5.6-42.2.9-48.5 5.2-9.1 6.1-12.4 15.5-11.8 33.3.4 14.8.4 14.8 14.5 15.2 13.1.5 17.7-.7 20.3-5.1 1.8-2.8 2-5.1 2-20.5V79h18.9l17.8 21 17.8 20.9 22.9.1h22.8l-6.2-7c-3.4-3.8-11.9-13.4-19-21.2l-12.8-14.3 4.3-1.1c15.4-4 26-15.7 28.8-31.7 2.8-16.8-6.2-34.6-21.1-41.5-5.7-2.7-5.9-2.7-32.2-2.9-14.6-.2-34.8-.4-45-.6-10.2-.1-20.3 0-22.5.4zm81.9 34.5c2.6 1 3.8 4.1 2.6 6.4-1 1.9-2.1 2-30.5 2H2092v-9h27.9c15.4 0 28.7.3 29.5.6zm-67.6 59.3c-.3 16.2-.3 16.1-8.5 16.1h-5.3v-10.3c0-9.3.2-10.6 2.5-14 2.7-3.9 9.4-8.1 10.8-6.7.5.4.7 7.1.5 14.9zm74-.9c7.3 8.2 13.2 15.2 13.2 15.5 0 .3-3.5.5-7.7.5h-7.8l-12-13.7c-16.8-19.1-16.1-17.3-6.8-17.3h7.9l13.2 15zM62.3 2c-4.1 1.7-10 11.6-35.8 59.4-27.7 51.4-28.4 53-23.4 56.8 2.3 1.7 4.4 2 18 2.1 19.9.2 19.2.6 27.6-14.1l4.7-8.2h45.5l5.5 9.4c8.4 14.3 7.5 13.9 29.3 13.4 12-.3 18.7-.8 19.4-1.5 2.2-2.2 1-7.4-3.3-15-4.9-8.6-9.1-12.7-14.5-14.2-5.8-1.6-84.1-1.4-87.3.2-1.4.7-5.3 5.8-8.9 11.6l-6.5 10.3-10.3-.4c-5.7-.3-10.5-.7-10.8-1-.5-.4 48.7-89.7 53.1-96.4C66.1 12.1 66.7 12 76 12c7 0 10.1.4 10.9 1.4 2 2.4 22.1 39.6 22.7 42 .3 1.3.1 3.4-.6 4.5-.9 1.8-2 2.1-7 2.1h-5.9L90 51c-6.7-12-8.7-14-13.8-14-4.4 0-7.4 3.2-13.1 14-5.6 10.5-6.1 15.9-1.8 19.6 2.8 2.4 3 2.4 25 2.4 12.2 0 23.9-.5 25.9-1 5.7-1.6 8.8-6 8.8-12.5 0-2.9-.6-7-1.4-9.1-2.5-7.2-24.3-44.8-27.1-46.9-2.3-1.7-4.4-2-15.3-2.2-7-.2-13.7.2-14.9.7zm17.3 53.2c1.6 2.9 3.1 5.6 3.2 6 .2.5-2.6.8-6.2.8s-6.6-.2-6.6-.5c0-1.1 5.5-11.5 6-11.5.4 0 2 2.4 3.6 5.2zm53.4 45.1c2.2 1.1 6.9 7.9 7 9.9 0 .5-4.4.8-9.8.8-11.1 0-13.1-.8-16.2-7-1.1-2.2-2-4.2-2-4.5 0-1.1 18.6-.4 21 .8zm57.4-98.2c-1.7.5-3.9 1.8-5 3-1.8 2-1.9 4-1.9 36.3 0 38.7.6 42.6 7 49.1 6 5.9 9.8 6.5 44.6 6.5 28.8 0 31.2-.1 36.4-2.1 7.4-2.7 16.5-11.2 20.2-18.7 2.5-5 2.8-6.8 2.8-15.2 0-8.8-.3-10.1-3.3-16.2-3.9-8-10.1-13.8-18.1-17-5.3-2.2-7.1-2.3-35.4-2.6l-29.8-.3.7 29.4c.5 20.3.4 29.6-.4 30.1-2.2 1.3-8.6-1.9-10.6-5.4-2-3.3-2.1-5.4-2.4-34.1l-.3-30.7 30.6-.7c41.9-1 45.6-.8 54.7 3.7 25.2 12.5 34.5 40.7 22.1 66.6-5.4 11.2-18.2 21.3-30.4 24.1-2.6.6-21.8 1.1-46.6 1.1H183v12.1l45.3-.3c40.3-.4 45.8-.6 50.7-2.2 16.3-5.4 28.2-15.5 34.9-29.7 4.3-9 7.1-20.6 7.1-29.1-.1-21.6-13.8-43.1-33.6-53l-8.7-4.3-19.6-.6c-27.7-1-65-.9-68.7.2zm78.4 37.3c5.2 2.2 11.4 9.1 13 14.4 2.9 9.5.5 18-6.8 24.5-7 6.4-8.4 6.7-33 6.7h-22V36.8l22.3.4c18.7.3 22.9.7 26.5 2.2zm409.4 20.1c.3 56.7.4 58.7 2.2 60.1 1.5 1 5.2 1.4 14.2 1.4 6.7 0 13-.3 13.8-.6 3.7-1.4 4.1-4.3 4.6-34.8l.5-30 30.9 33.2 30.9 33.2 16.1-.2 16.1-.3.3-54.8c.2-60.6.4-59.4-6-63.2-2.6-1.5-5.8-2-17-2.3L771 .7l-.1 32.4v32.4l-24.2-24.7c-14.3-14.6-25.4-25.2-27.2-25.8-3.7-1.4-9-.5-12.8 2.2-5.6 4-5.7 4.9-5.7 50.8v42h-12.3l.4-54.3.4-54.2-5.8-.3-5.7-.3.2 58.6zm118.8 2V111h-15.9l-33.5-35.6L714 39.8V35c0-5.9 1.6-7.6 5.1-5.2 1.3.9 16.2 15.6 33.1 32.7l30.7 31 .1-40.8V12h14v49.5zm83.6-58.9c-12.4 3-24.3 11.6-31.9 23.2-13.6 20.6-15.2 42.6-4.7 64.7 6.2 13 16.9 22.3 31.5 27.2 8 2.7 8.2 2.7 41.5 3 32 .4 33.6.3 36.7-1.6 2.1-1.3 3.5-3.3 4.2-5.8 1.2-4.3 1.4-15 .5-24.2l-.7-6.1h-29.9c-35.1 0-37.2-.3-43.8-6.9-10.4-10.4-8.9-26.8 3.2-34.8l4.2-2.8 33.8-.3 33.9-.3-.3-5.2-.3-5.2h-70l-5.1 2.7c-9.9 5.2-16.2 15.5-17.1 28.1-1.3 17.1 7.7 29.9 23.9 34.3 3.9 1 12.2 1.4 31.6 1.4H948v16h-31.3c-34 0-38.8-.6-47.7-5.7-13.2-7.7-20.3-23-20.3-43.8 0-24.1 11.4-39.5 33.9-46.1 5-1.4 11.5-1.8 41.2-2.1l35.2-.5V1l-36.2.1c-27.7 0-37.7.4-42.2 1.5zm117.5-.8c-1.3.4-3.4 2-4.5 3.5-1.8 2.5-2.1 4.5-2.4 15.6-.2 7.5.1 14.6.8 17 1.6 6 7 11.6 13.8 14.2 5.4 2.1 7.6 2.3 38.5 2.7l32.7.4v14l-31.2-.4c-34.8-.3-38.7.2-46.2 6.4-7 5.7-8.1 9.3-8.1 25.9 0 13.3.2 14.9 2 16.9 1.1 1.2 3.1 2.7 4.5 3.2 1.6.6 22.6.7 58.3.3l55.8-.8-.3-13.8c-.3-13.6-.3-13.9-3.1-16.6l-2.7-2.8-41.5-.3-41.5-.3V79h30.5c37.9 0 34.8 1.6 34.3-17.7-.4-18.8 2.6-17.3-34.9-17.3H1023v-7.5h83l2.7-2.8c2.8-2.7 2.8-2.9 3.1-17.2l.3-14.5h-25.3c-13.9 0-39-.2-55.8-.5-16.8-.2-31.6-.1-32.9.3zM1101 19.1v7.1l-43.5-.7-43.5-.7v18.4l-3.2-.6c-7.9-1.6-9.8-5.5-9.8-20.9V12h100v7.1zm-87 69.6v9.6l43.5-.6 43.5-.7v14h-47.7c-26.3 0-48.9.3-50.2.7l-2.3.6.4-11.9c.4-13.6 1.9-17.7 7.1-19.9 5.6-2.5 5.7-2.3 5.7 8.2zm138.3-86.2c-5.2 2.2-5.5 5-5.1 41.5.5 36.5 1.1 40.2 7.3 46.5 6 5.9 9.8 6.5 44.6 6.5 37 0 38.4-.3 48.4-10.4 8.9-8.9 11-13.8 11-25.6 0-8.2-.4-10.3-2.7-15.2-3.7-7.9-9.6-14-17.1-17.4l-6.2-2.9-30.4-.3-30.4-.3.4 29.8.4 29.8-3-.4c-4.3-.5-6.2-1.7-8.2-5.4-1.6-2.8-1.8-6.8-2.1-33.8l-.3-30.7 13.3-.7c7.3-.4 25-.5 39.3-.3l26.1.3 6.9 3.4c15.8 7.8 27.5 25.9 27.5 42.6-.1 23.2-15.3 43.6-36.1 48.4-2.6.6-21.8 1.1-46.6 1.1H1147v12.1l45.3-.3c49.7-.4 48.9-.4 62.2-7 21.1-10.7 34.4-40.7 29.2-65.5-4.9-22.7-24-42.4-45.1-46.2-9.4-1.7-82.2-1.4-86.3.4zm77.8 36.1c7.1 2.1 14.1 9 15.7 15.7 2.6 10.1.5 17.5-6.6 23.9-7.1 6.5-8.9 6.8-33.3 6.8H1184V37h20.3c15.7 0 21.6.4 25.8 1.6zm203.8-36.2c-6.3 1.7-13.1 5.8-16.2 9.9-4.9 6.4-6.2 11.3-6.2 22.7 0 9.2.3 11.2 2.6 16 3.2 6.8 7.9 11.6 14.4 14.6 2.8 1.2 17.6 5 33 8.4 36.8 8.1 35.5 7.7 35.5 10 0 1-.5 2.2-1.1 2.5-1.3.9-42.9.7-59.6-.2l-12.3-.6V97h77.2l3.3-3.3c4.1-4.1 5.3-9.3 3.4-14.4-2.5-6.5-4-7-40.8-14.3-38.2-7.5-40.1-8.2-44.1-16.5-1.8-3.7-2.2-6.3-2.2-13.6 0-8.2.2-9.4 2.9-13.7 2.1-3.5 4.3-5.4 8.7-7.7 5.8-2.9 6.3-3 26-3.7 11.1-.3 28.5-.7 38.9-.7L1516 9v14.7l-24.2.6c-13.3.4-28.6.7-34 .7-8.5 0-10.5.3-14.8 2.5-5.2 2.6-7 4.9-7 8.7 0 3.3 4.3 9.3 7.7 10.6 1.5.6 15.6 3.9 31.3 7.2 18.8 4.1 30.3 7 33.8 8.8 9.5 4.6 14.2 12.3 14.2 22.8-.1 9.2-6.4 18-16.5 22.6-5 2.3-5.1 2.3-43.7 2l-38.8-.4v11.3l40.3-.3c39.1-.4 40.4-.5 46.5-2.7 12.7-4.7 20-13.3 22.2-26.2 2.7-15.7-2-27.1-14.3-35-8.3-5.4-14.9-7.3-44.1-12.8-23.2-4.4-29-6-27.5-7.5.3-.3 16-1 34.9-1.5 20.2-.6 35.8-1.5 37.7-2.1 5.6-2 6.7-5 7.1-19.3l.4-12.7-44.3.1c-31.9 0-45.7.4-49 1.3zm142.6-.3c-4.1 2-4.9 4.8-5.3 18.3-.6 19.2 2 25.5 12.7 30.5l5.6 2.6 33.8.3 33.7.3v13.8l-32.7.3-32.8.3-5.5 2.6c-6.9 3.3-11.5 7.9-13.5 13.7-1.8 5.3-2.1 23.6-.5 29.4 2 7.1-1 6.8 62.7 6.8h57.3v-13c0-14.4-.9-17.7-5.5-19.8-1.9-.9-13.8-1.2-43-1.2H1603v-9.2l29.8.3c16.3.2 30.7 0 31.8-.4 2.9-1 3.4-3.2 3.4-16.9 0-10.9-.2-11.9-2.4-14.5l-2.4-2.8-30.1-.3-30.1-.3V36h41.1c44.8.1 44.8.1 46.9-5.6.6-1.4 1-8.3 1-15.3V2.3l-10.7-.6c-17-1.1-102.5-.7-104.8.4zM1681 18v7h-87v18l-2.7-.6c-8.2-1.9-10.3-6.2-10.3-20.9V11h100v7zm-43.5 79h43.5v14h-100v-9.6c0-14.6 2.2-19.8 9.5-22.1l3-1 .3 9.4.3 9.3h43.4zm169-95c-29.7.5-32.4.7-37.3 2.7-23.4 9.5-39.6 35.4-37.9 60.8 1.5 21.7 12.8 39.8 30.2 48.4 11.9 5.9 16.5 6.4 52 6.2 29.2-.1 32.2-.3 34.5-2 4.2-3 5.3-8.6 4.5-22.6l-.7-12.4-32.1-.3c-31-.3-32.3-.4-36.4-2.5-15.7-8.4-16.4-30.8-1.3-39.3l4.5-2.5 33.3-.3 33.2-.3v-3.7c0-2-.4-4.2-.8-4.8-.5-.8-10.4-1.3-33.7-1.5-29.7-.4-33.5-.2-38.1 1.4-7.3 2.5-12.7 7.6-16.6 15.5-3 6.1-3.3 7.4-3.3 16.2 0 10.8 2 16.5 8.2 22.6 8.8 8.8 17.9 10.7 49.8 10.2l23-.3.3 8.3.3 8.2h-28.8c-15.8 0-31.6-.5-35.1-1-23-3.8-35.6-21-35.5-48.5 0-19.2 7.8-33.6 22-40.8 11.4-5.8 13-6 51.8-6.6l36-.6v-11l-7-.1c-3.8 0-21.4.2-39 .6zm86.5 31.7c0 36.5.5 40.2 6.7 53 4.1 8.5 12.9 18.5 21 23.9 3.1 2.1 9.6 5.1 14.3 6.8 7.7 2.8 9.6 3 20.5 3 33.5-.3 58.9-17.5 65.6-44.4 1.1-4.1 1.4-14.2 1.4-40V1.5h-28.7l-2.4 2.8-2.4 2.8v57.5l-2.7 5.5c-5 9.8-15.6 15.2-29.8 15.3-9 .1-15.3-2.3-19.9-7.4-5.8-6.4-6.4-10.2-7.2-45.5l-.7-31.5h-10.8l.3 34.2c.3 30.1.6 34.9 2.2 39 2.6 7 9.5 14.2 17.4 18 6.5 3.2 7 3.3 19.2 3.3 10.6-.1 13.4-.4 18.3-2.4 10.9-4.3 19.3-12.8 22.2-22.3 1.2-4.1 1.5-10.9 1.5-32.4 0-30.6 0-30.4 7-30.4 7.1 0 7-.3 7 31.4 0 22.8-.3 29.3-1.6 33.7-5.4 18.5-24.9 32.7-49.4 36-24.1 3.3-48.8-12.5-56-35.8-1.8-6-2-9.3-2-39.4V1h-11v32.7zm332 27.4v60l17.5-.3c20.2-.4 20.8-.6 22.5-9.7.6-3.2 1-26.3 1-57.7V1h-11v110h-19V1h-11v60.1zm75.5-51.5c-1.3 15.6.5 23.3 6.1 25.4 1.4.6 10.2 1 19.5 1h16.9v85h39V36.2l19.6-.4 19.6-.3 2.4-2.8c2.3-2.7 2.4-3.4 2.4-17.3V1h-21.5c-19.3 0-22 .2-25.3 1.9-7.2 3.7-7.2 3.5-7.2 44.3 0 19.9-.3 42-.7 49l-.6 12.8h-14.6l-.3-49.2-.3-49.3-2.3-3.3c-4.2-5.9-5.8-6.2-30.1-6.2h-21.9l-.7 8.6zm39.2 3.2c1.6 1 3.3 5.7 3.3 9.3V25h-31V12h13.3c7.2 0 13.7.4 14.4.8zm75.3 5.7V25h-32.2l.7-4.8c1.2-7.9 1.8-8.2 17.7-8.2h13.8v6.5zm43-16.9c0 .3 11.2 15.2 25 33.2l25 32.7.2 26.5.3 26.5 14 .3c22.4.4 22.5.4 22.5-26.5 0-10.3.4-20.4.9-22.4.5-2.4 9.2-14.4 26.5-36.8 14.1-18.2 25.6-33.4 25.6-33.6 0-.3-3-.5-6.7-.5h-6.8l-24 30.6c-13.2 16.9-24.5 31.6-25.2 32.8-.9 1.5-1.2 8.7-1.3 23.8V110h-15v-7.3c0-4.1-.3-13.4-.6-20.8l-.6-13.4 19.7-25.5c10.9-14 22.7-29.2 26.2-33.8l6.4-8.2H2557l-14.1 17.7c-7.7 9.8-14.3 17.9-14.7 18-.4.1-7-7.4-14.6-16.7-7.6-9.2-15-17.3-16.3-17.9-2.4-1.1-39.3-1.6-39.3-.5zm31.2 9c3.3.6 4.8 2.1 14.4 14.3 5.9 7.5 12.2 15.4 14.1 17.7l3.2 4-4.3 4.3-4.3 4.2-17.7-21.8-17.7-21.8 3.3-.6c4.8-.9 5-.9 9-.3zM344.5 5.2c10.5 24.9 44 96.7 46.1 99 5.6 5.7 15.2 5.8 20.7 0 1.5-1.6 11.7-22.1 23.5-47.3l20.8-44.4 8.3-.3 8.2-.3-1.4 2.8c-3.3 6.5-48.7 105.9-48.7 106.6 0 .4 2.8.7 6.2.5l6.1-.3 26.3-59C475.1 30 486.9 3.2 486.9 2.7c.1-.4-8.6-.6-19.1-.5l-19.2.3L432 37.2c-9.1 19-16.8 34.9-17.1 35.2-.3.3-7.7-14.3-16.5-32.5C387.5 17 381.7 6.1 379.7 4.4 376.9 2.1 376.3 2 360 2h-16.9l1.4 3.2zm44.8 43.1c18.4 37.5 19.6 40.9 16 44.9-1.9 2.1-5.2 2.3-7.6.5-1.3-.9-38.7-79.6-38.7-81.3 0-.2 2.8-.4 6.3-.4l6.2.1 17.8 36.2zM559 3.2c-1.4.8-4 3.4-5.9 5.9-5.5 7.5-55.3 100.9-55.8 104.9-.4 2.7 0 3.9 1.7 5.5 2 1.8 3.9 2 17.9 2.3 19.9.4 20.5.1 27.6-12.3l5.2-9 23.1-.3 23.1-.2 5.5 9.3c8.3 14 6.6 13.2 27.8 13 10.1-.2 18.7-.7 19.8-1.3 2.7-1.4 2.6-5.9-.1-11.3-4.4-8.6-8.9-14.3-13-16.7l-4.3-2.3h-42.7c-36.9-.1-43 .2-45.1 1.5-1.2.8-5 6.1-8.3 11.7l-6 10.2-5-.5c-2.7-.3-7.6-.6-10.7-.6-3.2 0-5.8-.4-5.8-.9 0-.9 52.6-95.9 54.3-97.9.7-.9 3.8-1.2 11.1-1l10.1.3L595.2 35c6.5 11.8 11.8 22.2 11.8 23.1 0 3.3-2.5 5-8.1 5.6l-5.7.6-5.6-10.6c-7.8-14.5-8.3-15-13.9-15-2.5 0-5.3.5-6.1 1.2-2.3 1.9-10.6 17.1-11.8 21.6-1.5 5.5-.1 9.5 4.1 11.7 2.8 1.4 6.1 1.6 24.9 1.1 11.9-.2 23.1-.9 24.9-1.5 1.8-.5 4.4-2.4 5.9-4.1 2.4-2.9 2.6-3.7 2.2-9.9-.5-6.5-1.1-7.9-13.4-29.9-7.7-14-13.8-23.8-15.3-24.8-3.4-2.2-26.3-2.8-30.1-.9zm17.9 54.2c1.7 2.9 3.1 5.6 3.1 6 0 .3-2.9.6-6.5.6s-6.5-.4-6.5-1c0-1.8 5.4-11.9 6.1-11.4.4.2 2.2 2.9 3.8 5.8zm53.6 44.2c.9.4 2.7 2.8 4 5.4l2.4 4.8-7.9.7c-10.5.9-14.2-.3-17.5-5.9-1.4-2.4-2.5-4.6-2.5-4.9 0-.9 19.3-.9 21.5-.1z"></path>
  </symbol>
</svg>